<svg width="24" height="24" viewBox="0 0 24 24" fill="none" xmlns="http://www.w3.org/2000/svg">
<g id="Group">
<path id="Vector" d="M12 13C14.396 13 16.575 13.694 18.178 14.671C18.978 15.161 19.662 15.736 20.156 16.361C20.642 16.977 21 17.713 21 18.5C21 19.345 20.589 20.011 19.997 20.486C19.437 20.936 18.698 21.234 17.913 21.442C16.335 21.859 14.229 22 12 22C9.771 22 7.665 21.86 6.087 21.442C5.302 21.234 4.563 20.936 4.003 20.486C3.41 20.01 3 19.345 3 18.5C3 17.713 3.358 16.977 3.844 16.361C4.338 15.736 5.021 15.161 5.822 14.671C7.425 13.694 9.605 13 12 13ZM12 2C13.3261 2 14.5979 2.52678 15.5355 3.46447C16.4732 4.40215 17 5.67392 17 7C17 8.32608 16.4732 9.59785 15.5355 10.5355C14.5979 11.4732 13.3261 12 12 12C10.6739 12 9.40215 11.4732 8.46447 10.5355C7.52678 9.59785 7 8.32608 7 7C7 5.67392 7.52678 4.40215 8.46447 3.46447C9.40215 2.52678 10.6739 2 12 2Z" fill="#0D6EFD"/>
</g>
</svg>
