<svg width="22" height="24" viewBox="0 0 22 24" fill="none" xmlns="http://www.w3.org/2000/svg">
<g id="vuesax/outline/home-2">
<g id="vuesax/outline/home-2_2">
<g id="home-2">
<g id="Vector">
<mask id="path-1-inside-1_1103_187" fill="white">
<path d="M16.79 22.75H5.21C2.47 22.75 0.25 20.52 0.25 17.78V10.37C0.25 9.00997 1.09 7.29997 2.17 6.45997L7.56 2.25997C9.18 0.999974 11.77 0.939974 13.45 2.11997L19.63 6.44997C20.82 7.27997 21.75 9.05997 21.75 10.51V17.79C21.75 20.52 19.53 22.75 16.79 22.75ZM8.48 3.43997L3.09 7.63997C2.38 8.19997 1.75 9.46997 1.75 10.37V17.78C1.75 19.69 3.3 21.25 5.21 21.25H16.79C18.7 21.25 20.25 19.7 20.25 17.79V10.51C20.25 9.54997 19.56 8.21997 18.77 7.67997L12.59 3.34997C11.45 2.54997 9.57 2.58997 8.48 3.43997Z"/>
</mask>
<path d="M16.79 22.75H5.21C2.47 22.75 0.25 20.52 0.25 17.78V10.37C0.25 9.00997 1.09 7.29997 2.17 6.45997L7.56 2.25997C9.18 0.999974 11.77 0.939974 13.45 2.11997L19.63 6.44997C20.82 7.27997 21.75 9.05997 21.75 10.51V17.79C21.75 20.52 19.53 22.75 16.79 22.75ZM8.48 3.43997L3.09 7.63997C2.38 8.19997 1.75 9.46997 1.75 10.37V17.78C1.75 19.69 3.3 21.25 5.21 21.25H16.79C18.7 21.25 20.25 19.7 20.25 17.79V10.51C20.25 9.54997 19.56 8.21997 18.77 7.67997L12.59 3.34997C11.45 2.54997 9.57 2.58997 8.48 3.43997Z" fill="#707B81"/>
<path d="M2.17 6.45997L3.39788 8.03868L3.3993 8.03757L2.17 6.45997ZM7.56 2.25997L6.33212 0.681269L6.3307 0.682373L7.56 2.25997ZM13.45 2.11997L12.3005 3.75661L12.3024 3.75794L13.45 2.11997ZM19.63 6.44997L18.4824 8.08794L18.4859 8.09038L19.63 6.44997ZM8.48 3.43997L9.7093 5.01757L9.70988 5.01712L8.48 3.43997ZM3.09 7.63997L1.86068 6.06235L1.85143 6.06964L3.09 7.63997ZM18.77 7.67997L17.6224 9.31794L17.6318 9.32458L17.6414 9.3311L18.77 7.67997ZM12.59 3.34997L11.4411 4.98709L11.4424 4.98794L12.59 3.34997ZM16.79 20.75H5.21V24.75H16.79V20.75ZM5.21 20.75C3.57981 20.75 2.25 19.4207 2.25 17.78H-1.75C-1.75 21.6193 1.36019 24.75 5.21 24.75V20.75ZM2.25 17.78V10.37H-1.75V17.78H2.25ZM2.25 10.37C2.25 10.0681 2.35387 9.60319 2.6002 9.1016C2.84621 8.60066 3.15277 8.22932 3.39788 8.03868L0.942119 4.88127C0.107233 5.53063 -0.546212 6.43429 -0.990197 7.33835C-1.43387 8.24176 -1.75 9.31184 -1.75 10.37H2.25ZM3.3993 8.03757L8.7893 3.83757L6.3307 0.682373L0.940701 4.88237L3.3993 8.03757ZM8.78788 3.83868C9.71216 3.1198 11.3375 3.08022 12.3005 3.75661L14.5995 0.483343C12.2025 -1.20028 8.64784 -1.11985 6.33212 0.68127L8.78788 3.83868ZM12.3024 3.75794L18.4824 8.08794L20.7776 4.81201L14.5976 0.482008L12.3024 3.75794ZM18.4859 8.09038C18.7572 8.27965 19.0935 8.65634 19.3635 9.17333C19.6335 9.69044 19.75 10.1807 19.75 10.51H23.75C23.75 9.38928 23.4015 8.26451 22.909 7.32162C22.4165 6.37861 21.6928 5.45029 20.7741 4.80957L18.4859 8.09038ZM19.75 10.51V17.79H23.75V10.51H19.75ZM19.75 17.79C19.75 19.418 18.4228 20.75 16.79 20.75V24.75C20.6372 24.75 23.75 21.6219 23.75 17.79H19.75ZM7.2507 1.86237L1.8607 6.06237L4.3193 9.21757L9.7093 5.01757L7.2507 1.86237ZM1.85143 6.06964C1.1898 6.59149 0.689462 7.32395 0.359546 7.99383C0.0308573 8.66122 -0.25 9.5128 -0.25 10.37H3.75C3.75 10.3724 3.74993 10.3559 3.75556 10.319C3.7611 10.2827 3.77102 10.2341 3.78755 10.1742C3.82121 10.0522 3.87509 9.90907 3.94795 9.76112C4.11054 9.431 4.2802 9.24846 4.32857 9.21031L1.85143 6.06964ZM-0.25 10.37V17.78H3.75V10.37H-0.25ZM-0.25 17.78C-0.25 20.787 2.18793 23.25 5.21 23.25V19.25C4.41207 19.25 3.75 18.5929 3.75 17.78H-0.25ZM5.21 23.25H16.79V19.25H5.21V23.25ZM16.79 23.25C19.8046 23.25 22.25 20.8045 22.25 17.79H18.25C18.25 18.5954 17.5954 19.25 16.79 19.25V23.25ZM22.25 17.79V10.51H18.25V17.79H22.25ZM22.25 10.51C22.25 9.60852 21.9457 8.71458 21.5795 8.01249C21.2142 7.31223 20.6523 6.544 19.8986 6.02885L17.6414 9.3311C17.6396 9.32987 17.6538 9.33951 17.6815 9.36591C17.7088 9.39192 17.7439 9.42905 17.7844 9.47869C17.8669 9.57992 17.9542 9.71146 18.033 9.86246C18.1117 10.0134 18.1705 10.162 18.2076 10.291C18.2462 10.4253 18.25 10.499 18.25 10.51H22.25ZM19.9176 6.04201L13.7376 1.71201L11.4424 4.98794L17.6224 9.31794L19.9176 6.04201ZM13.7389 1.71286C12.7515 1.02 11.5552 0.753205 10.4729 0.776695C9.39155 0.800162 8.2048 1.11835 7.25012 1.86283L9.70988 5.01712C9.8452 4.9116 10.1434 4.78479 10.5596 4.77575C10.9748 4.76674 11.2885 4.87995 11.4411 4.98709L13.7389 1.71286Z" fill="#707B81" mask="url(#path-1-inside-1_1103_187)"/>
</g>
<path id="Vector_2" d="M11 18.25C10.8661 18.25 10.75 18.1339 10.75 18V15C10.75 14.8661 10.8661 14.75 11 14.75C11.1339 14.75 11.25 14.8661 11.25 15V18C11.25 18.1339 11.1339 18.25 11 18.25Z" fill="#707B81" stroke="#707B81"/>
</g>
</g>
</g>
</svg>
