<svg width="24" height="24" viewBox="0 0 24 24" fill="none" xmlns="http://www.w3.org/2000/svg">
<g id="Notification/Icon">
<path id="Vector" d="M18.2395 8.97519L17.395 9.07104L18.2395 8.97519ZM18.6867 12.9153L19.5313 12.8194V12.8194L18.6867 12.9153ZM5.31328 12.9153L4.4687 12.8194L5.31328 12.9153ZM5.76046 8.97519L6.60504 9.07104L5.76046 8.97519ZM4.44779 14.8721L3.80053 14.3212H3.80053L4.44779 14.8721ZM19.5522 14.8721L18.905 15.4231V15.4231L19.5522 14.8721ZM14.2699 4.37366H13.4199C13.4199 4.73699 13.6509 5.06014 13.9946 5.17783L14.2699 4.37366ZM9.73005 4.37366L10.0054 5.17783C10.3491 5.06014 10.5801 4.73699 10.5801 4.37366H9.73005ZM15.7959 20.2983C15.9607 19.8587 15.7379 19.3688 15.2983 19.2041C14.8587 19.0393 14.3688 19.2621 14.2041 19.7017L15.7959 20.2983ZM9.79594 19.7017C9.63119 19.2621 9.14129 19.0393 8.7017 19.2041C8.26212 19.3688 8.03932 19.8587 8.20406 20.2983L9.79594 19.7017ZM17.7772 17.15H6.22281V18.85H17.7772V17.15ZM17.395 9.07104L17.8421 13.0111L19.5313 12.8194L19.0841 8.87933L17.395 9.07104ZM6.15785 13.0111L6.60504 9.07104L4.91589 8.87933L4.4687 12.8194L6.15785 13.0111ZM5.09504 15.4231C5.68458 14.7305 6.05729 13.8972 6.15785 13.0111L4.4687 12.8194C4.40819 13.3526 4.18231 13.8727 3.80053 14.3212L5.09504 15.4231ZM17.8421 13.0111C17.9427 13.8972 18.3154 14.7305 18.905 15.4231L20.1995 14.3212C19.8177 13.8727 19.5918 13.3526 19.5313 12.8194L17.8421 13.0111ZM6.22281 17.15C5.60233 17.15 5.17293 16.8442 4.97753 16.4998C4.79052 16.1703 4.79219 15.7789 5.09504 15.4231L3.80053 14.3212C3.00636 15.2541 2.98135 16.4267 3.49901 17.3389C4.00829 18.2363 5.01492 18.85 6.22281 18.85V17.15ZM17.7772 18.85C18.9851 18.85 19.9917 18.2363 20.501 17.3389C21.0187 16.4267 20.9936 15.2541 20.1995 14.3212L18.905 15.4231C19.2078 15.7789 19.2095 16.1703 19.0225 16.4998C18.8271 16.8442 18.3977 17.15 17.7772 17.15V18.85ZM15.1199 4.37366V4.26995H13.4199V4.37366H15.1199ZM19.0841 8.87933C18.7998 6.37421 16.943 4.39044 14.5453 3.56949L13.9946 5.17783C15.8817 5.82395 17.197 7.32706 17.395 9.07104L19.0841 8.87933ZM10.5801 4.37366V4.26995H8.88005V4.37366H10.5801ZM6.60504 9.07104C6.80298 7.32706 8.1183 5.82395 10.0054 5.17783L9.45472 3.56949C7.05701 4.39044 5.20021 6.37421 4.91589 8.87933L6.60504 9.07104ZM12 2.85C12.7842 2.85 13.4199 3.48573 13.4199 4.26995H15.1199C15.1199 2.54685 13.7231 1.15 12 1.15V2.85ZM12 1.15C10.2769 1.15 8.88005 2.54685 8.88005 4.26995H10.5801C10.5801 3.48573 11.2158 2.85 12 2.85V1.15ZM14.2041 19.7017C13.8965 20.5223 13.0445 21.15 12 21.15V22.85C13.7255 22.85 15.2301 21.8081 15.7959 20.2983L14.2041 19.7017ZM12 21.15C10.9555 21.15 10.1035 20.5223 9.79594 19.7017L8.20406 20.2983C8.76991 21.8081 10.2745 22.85 12 22.85V21.15Z" fill="#707B81"/>
</g>
</svg>
