<svg width="39" height="18" viewBox="0 0 39 18" fill="none" xmlns="http://www.w3.org/2000/svg">
<g id="Slider">
<rect id="Rectangle 9" y="-0.00012207" width="38.5714" height="18" rx="9" fill="#707B81"/>
<g id="Arrow Indications">
<path id="Line 1" d="M32.3536 9.35343C32.5488 9.15817 32.5488 8.84159 32.3536 8.64632L29.1716 5.46434C28.9763 5.26908 28.6597 5.26908 28.4645 5.46434C28.2692 5.65961 28.2692 5.97619 28.4645 6.17145L31.2929 8.99988L28.4645 11.8283C28.2692 12.0236 28.2692 12.3401 28.4645 12.5354C28.6597 12.7307 28.9763 12.7307 29.1716 12.5354L32.3536 9.35343ZM32 8.49988H31V9.49988H32V8.49988Z" fill="white"/>
<path id="Line 2" d="M7.64645 9.35343C7.45118 9.15817 7.45118 8.84159 7.64645 8.64632L10.8284 5.46434C11.0237 5.26908 11.3403 5.26908 11.5355 5.46434C11.7308 5.65961 11.7308 5.97619 11.5355 6.17145L8.70711 8.99988L11.5355 11.8283C11.7308 12.0236 11.7308 12.3401 11.5355 12.5354C11.3403 12.7307 11.0237 12.7307 10.8284 12.5354L7.64645 9.35343ZM8 8.49988H9V9.49988H8V8.49988Z" fill="white"/>
</g>
</g>
</svg>
