<svg width="16" height="17" viewBox="0 0 16 17" fill="none" xmlns="http://www.w3.org/2000/svg">
<path id="Vector" fill-rule="evenodd" clip-rule="evenodd" d="M9.36286 3.34856C9.40839 3.07838 9.4427 2.81127 9.46486 2.54413C9.49825 2.14341 9.4776 1.73964 9.48944 1.33892C9.49461 1.16892 9.51495 0.725713 9.50675 0.661963C9.43237 0.106427 8.984 0.021417 8.85286 0.00623841C8.78941 -0.00286873 8.13795 -0.0756933 7.9974 0.646807C7.82497 1.5302 7.76972 2.41965 7.83073 3.2909C7.68836 4.03162 7.44489 4.76928 7.12341 5.43714C5.84416 8.09339 3.40649 8.35143 0.765415 8.32714C0.359237 8.32107 0.0219564 8.63982 0.000705719 9.04357C-0.0205441 9.45035 0.281812 9.80249 0.686169 9.83892C2.16244 9.9816 4.78167 11.1655 5.68722 12.398C5.87665 12.6561 5.98684 13.2784 6.13256 13.8886C6.33595 14.7356 6.57789 15.5734 6.84898 15.9255C6.88966 15.9802 7.38418 16.5388 7.53172 16.6207C7.88629 16.815 8.17012 16.7027 8.33132 16.5995C8.49252 16.4963 8.67496 16.2929 8.74782 15.9559C8.82402 15.6038 8.75966 14.8812 8.7715 14.7264C8.81461 14.1648 8.92692 13.0629 9.15612 12.1157C9.27967 11.6057 9.41143 11.1352 9.62939 10.9014C10.4363 10.0362 11.7265 10.1638 12.8129 10.3064C12.9377 10.3216 13.0625 10.3398 13.1869 10.355C13.6292 10.4856 14.0989 10.5827 14.5952 10.6404C15.3447 10.7284 15.468 10.0393 15.4747 9.99375C15.4886 9.89357 15.5405 9.37751 14.9756 9.17108C14.914 9.14983 14.4592 9.04964 14.2841 9.01018C14.04 8.95554 13.7932 8.91305 13.5455 8.87359C10.9867 8.07823 9.59691 5.84392 9.36286 3.34856ZM8.48462 6.10805C7.51866 8.10555 6.05272 9.0709 4.31507 9.50804H4.31537C5.40034 10.0757 6.38726 10.7861 6.91031 11.4995C7.10885 11.7697 7.29098 12.313 7.45522 12.9232C7.54416 12.3555 7.66437 11.7514 7.82314 11.2353C8.00376 10.6464 8.24693 10.1577 8.51833 9.86627C9.04229 9.30466 9.69983 8.99198 10.4068 8.83716C9.56049 8.08734 8.91873 7.15234 8.48462 6.10805Z" fill="#8D8D8D" fill-opacity="0.2"/>
</svg>
