<svg width="115" height="104" viewBox="0 0 115 104" fill="none" xmlns="http://www.w3.org/2000/svg">
<g id="Nike-Zoom-Moc-The-10th_1_" clip-path="url(#clip0_43_6606)">
<path id="106" d="M23.3603 74.5454C22.7853 74.8587 21.2242 76.516 19.8686 77.2545C18.5125 77.9925 16.5215 79.0837 13.0163 82.5392C9.51108 85.9952 5.73725 89.6439 4.94964 91.1612C4.16204 92.6785 4.36594 94.5982 5.17519 96.0811C5.9853 97.5631 8.36919 99.1667 9.09713 99.7397C9.82508 100.313 10.4451 100.344 11.2572 100.104C12.0692 99.8631 46.3039 83.0192 60.1002 74.4847C73.8961 65.9503 66.0685 64.9596 63.2124 64.4873C60.3563 64.0149 72.5271 50.7341 69.8262 45.7245C67.1249 40.7153 55.9457 40.4352 53.427 41.7401C50.9084 43.0451 29.5182 68.298 27.7046 70.3645C25.8909 72.4305 23.9354 74.2322 23.3603 74.5454Z" fill="#ECEEEF"/>
<path id="105" d="M53.4258 41.7394C55.9444 40.4349 67.1236 40.7146 69.8254 45.7237C72.5259 50.7338 60.355 64.0142 63.2111 64.4865L64.634 64.7354C67.773 65.3724 71.7913 67.076 60.8053 74.0418L60.0989 74.484C46.303 83.0184 12.0679 99.8623 11.2559 100.103C10.4438 100.344 9.82378 100.311 9.09585 99.7389L7.73096 98.7068C7.50078 98.5266 7.26041 98.3329 7.02196 98.1297C5.34778 95.1995 5.11702 93.0316 6.32734 91.6218C8.8045 88.737 19.7768 82.7655 25.8272 78.8227L26.4784 78.393C32.3558 74.4673 38.3376 71.3944 40.5023 70.2952C42.5806 69.2398 41.6049 68.051 37.8887 69.8291C34.1726 71.6072 32.764 71.5605 30.4568 71.5965C29.7276 71.6082 29.0712 70.7968 28.0596 69.9536L36.4791 60.1593C43.3324 52.2409 51.8896 42.5358 53.4258 41.7394Z" fill="#DADEE0"/>
<path id="104" d="M53.4253 41.7394C55.944 40.435 67.1232 40.7146 69.825 45.7238C72.5255 50.7339 60.3546 64.0142 63.2107 64.487L64.6336 64.7359C67.7726 65.3729 71.7909 67.0765 60.8049 74.0423L60.0985 74.4845C47.2729 82.4186 16.7822 97.5346 11.9041 99.8147C7.85411 96.2201 6.9587 94.0121 9.33498 92.3269C11.5541 90.7536 18.3774 87.5162 24.2118 84.3728C30.0463 81.2294 32.3739 80.1148 36.7557 77.7276C41.1374 75.3405 43.5545 73.103 44.8484 71.2576C46.697 68.6215 42.639 65.8752 42.0322 66.3218C41.4254 66.7684 38.841 68.5236 37.1846 69.8038C35.5283 71.0844 32.045 72.3493 30.06 72.0778C29.3644 71.9828 30.1634 69.3013 31.7709 65.6247L40.1892 55.8914C46.114 49.1149 52.1582 42.3964 53.4253 41.7394Z" fill="#CDD1D2"/>
<path id="103" d="M43.4893 62.4022C45.1239 61.3893 53.11 61.8454 54.1575 63.6948C55.205 65.5442 62.2501 72.3349 58.9616 74.9745L58.0164 75.697C57.9145 75.7727 57.8074 75.8521 57.6946 75.9352L56.0993 76.8672C41.8259 85.1187 16.3297 97.7474 11.9056 99.8156C11.3601 99.3317 10.8723 98.8728 10.4415 98.4372C10.1372 97.3209 10.9877 95.8133 15.0195 93.5463L16.816 92.5744C25.5192 87.9263 44.2886 78.2727 46.5495 76.2033C48.9208 74.033 47.2929 71.152 48.4145 69.6135C49.536 68.075 48.3802 67.4863 46.6196 67.6318C44.8593 67.7773 42.9756 65.5091 42.7919 65.467C42.6082 65.4244 42.2205 65.6696 41.9452 65.8764C41.2719 66.3819 39.8934 67.5375 38.6051 68.6401L37.7526 69.2595C36.9295 69.8422 36.2167 70.2926 35.815 70.4152C34.397 70.847 41.8547 63.4146 43.4893 62.4022Z" fill="#BBC2C5"/>
<path id="102" d="M53.4265 41.7395C55.9452 40.435 67.1244 40.7147 69.8262 45.7238C72.5267 50.7339 60.3558 64.0143 63.2119 64.4866L64.6348 64.7355C67.7738 65.3725 71.7921 67.0761 60.8061 74.0419L60.0997 74.4841C46.3038 83.0185 12.0687 99.8625 11.2566 100.103C10.4446 100.344 9.82454 100.312 9.09661 99.7391L8.00502 98.918C7.54311 98.5648 7.01786 98.1447 6.53207 97.6947L6.03245 96.8887C5.80737 96.5169 5.62481 96.1997 5.5087 95.9779C4.91207 94.8228 5.04698 94.1432 5.75808 95.156L5.91923 95.3992C6.76871 96.7498 9.16323 98.7918 9.38453 98.8583C9.58477 98.9186 13.2172 96.6927 16.2512 95.093L26.0112 90.0992C30.5241 87.7612 35.5901 85.0891 38.6546 83.3323L39.2399 82.9937C44.6264 79.8442 52.3339 74.688 51.8023 74.2645L51.2884 73.7371C50.3032 72.6734 49.1889 71.1424 49.666 70.2793L50.9048 68.178C51.6661 66.8696 52.4304 65.4447 52.2566 65.1223C51.9669 64.5852 48.8566 66.7943 46.7632 66.9136C44.6698 67.0328 43.5242 64.0347 42.4801 64.8721C41.436 65.7095 36.5904 70.1052 35.6564 70.6466C34.7224 71.188 33.6874 71.6051 33.437 72.1694C33.1867 72.7336 34.8609 72.5779 35.3297 72.5551C35.7985 72.5324 36.7166 73.3267 36.6511 74.3374C36.5856 75.3481 35.4907 77.6112 34.0575 78.336C32.6243 79.0608 31.2471 79.5785 30.6771 78.9062C30.297 78.4583 30.1334 77.8681 30.1864 77.136L28.7464 77.3904C28.1468 77.4874 26.0892 76.4538 25.6175 76.4256C25.1458 76.3974 22.6645 76.5011 21.8907 76.6309C21.2458 76.7392 20.8693 77.0453 20.3812 77.0052L20.3053 76.9888C21.4063 76.2672 22.5568 75.1174 23.1602 74.6745L23.3593 74.5435C23.8524 74.2753 25.3593 72.913 26.9217 71.2279L27.7031 70.3621C29.5177 68.2973 50.9079 43.0449 53.4265 41.7395Z" fill="#9998A7"/>
<path id="101" d="M61.5059 50.7403C62.7209 50.6432 64.2939 48.7261 63.7841 47.5106C63.2743 46.2952 59.4619 45.6086 58.3382 45.7037C57.2145 45.7988 56.3652 46.2969 57.6584 47.7302C58.9515 49.1636 60.2908 50.8374 61.5059 50.7403Z" fill="#A3857C"/>
<path id="100" d="M58.7292 46.8898C60.1566 47.0826 62.2163 47.2342 62.5338 47.8504C62.8513 48.4667 62.4257 49.1738 61.336 49.2898C60.2458 49.4062 58.2111 46.3988 57.454 46.3823C56.6973 46.3653 54.5922 46.7206 55.1791 47.8469C55.7655 48.9731 61.1056 51.6529 61.6444 51.8695C62.1828 52.0861 65.0588 50.3156 65.0483 49.275C65.0379 48.2345 65.836 46.1009 63.6493 45.7199C61.4625 45.3384 57.3023 46.697 58.7292 46.8898Z" fill="#967D73"/>
<path id="99" d="M54.4536 61.6745C54.797 61.3458 56.2642 59.7669 57.5086 58.1678C57.7521 57.8547 56.8988 57.3178 57.4682 56.6107C58.0376 55.9036 58.6798 56.6005 58.8381 56.3432C58.9876 56.1001 59.0061 56.138 59.1039 55.9305C59.1676 55.8105 58.7365 55.4379 58.888 54.9327C59.0395 54.4279 59.3288 54.2573 59.311 54.0866C59.1877 52.9136 57.3674 52.3015 56.8141 52.0061C56.1715 51.6631 53.5847 51.8407 52.6164 52.8193C51.6482 53.7979 49.7192 56.1355 50.8053 56.3828C51.8914 56.6301 53.1353 56.6064 53.967 58.2098C54.7987 59.8133 53.819 62.2826 54.4536 61.6745Z" fill="#BBBCC1"/>
<path id="98" d="M72.0757 27.891C68.6079 29.9914 65.9254 33.0785 69.1987 35.3807C71.3812 36.9154 74.3106 38.6656 77.9869 40.6313L93.3487 26.4119C93.3089 26.1909 93.2771 26.0657 93.2535 26.036C91.3271 23.6251 90.0637 22.1792 89.2605 21.1867C88.4426 20.176 86.9817 18.5439 84.8778 16.2906C83.43 19.1119 81.8087 21.2703 80.014 22.7672C77.3225 25.0124 75.5439 25.7905 72.0757 27.891Z" fill="#65656E"/>
<path id="97" d="M85.5955 20.9488C85.5606 21.6311 85.1773 22.5574 83.829 23.9384C82.4807 25.3198 76.9148 28.0263 75.1055 30.1056C73.2963 32.185 73.2488 33.6737 74.0864 34.2616C74.924 34.8495 80.8626 28.5145 82.4997 26.594C84.1369 24.6735 84.8391 23.8871 85.7315 23.6332C86.6235 23.3794 88.2046 23.9615 87.741 23.2272C87.2764 22.493 85.6305 20.2665 85.5955 20.9488Z" fill="#737378"/>
<path id="96" d="M84.8783 16.2903L86.0637 17.5678C87.1717 18.7708 88.0486 19.7502 88.6935 20.5056L91.8217 24.2682C92.2526 24.7924 92.7289 25.3782 93.254 26.0358L93.2803 26.0971L93.3492 26.4117L77.9874 40.6311C76.42 39.7932 74.9879 38.994 73.6923 38.2343C73.7057 37.2866 73.9349 36.3602 74.1525 36.4088C74.5118 36.4893 75.4516 35.8497 75.6958 35.5688L80.3924 29.7898C82.3566 27.3844 84.2963 25.038 84.7784 24.5608C85.5049 23.8412 86.1022 23.801 86.6359 23.8943L88.3417 24.2645C89.0049 24.3989 89.6955 24.5307 89.8809 24.5428C90.161 24.5609 87.1118 21.9046 85.9249 20.3078L85.7359 20.0378C84.7303 18.4925 84.212 19.8082 83.8834 20.5534C83.5548 21.2986 77.9633 26.7151 74.002 29.4192C70.9316 31.5148 71.4 35.1773 71.8855 37.1472C70.8867 36.5268 69.9937 35.9402 69.1997 35.3818C65.9259 33.0796 68.6084 29.9925 72.0766 27.892C75.5444 25.7916 77.3234 25.0135 80.015 22.7683C81.8087 21.2705 83.43 19.1116 84.8783 16.2903Z" fill="#504F51"/>
<path id="95" d="M57.9165 74.1301C54.3796 74.0517 51.2034 72.5691 50.4303 71.3481C49.6572 70.127 49.5443 68.4912 50.5355 67.3839C51.5268 66.2767 60.8097 55.3578 62.2409 53.237C63.6717 51.1163 65.2694 48.6021 64.7261 47.139C64.1829 45.676 61.712 45.616 59.6459 45.729C57.5798 45.8421 54.5803 45.6641 53.19 45.8498C51.7998 46.0356 53.1542 36.5164 53.4759 34.2067C53.7972 31.8971 53.9217 30.4328 58.2558 28.4229C62.5895 26.413 67.1943 25.8331 69.6354 24.8983C72.076 23.963 75.8022 22.3796 75.5348 20.4445C75.2674 18.5098 74.9543 15.4409 75.3443 13.1569C75.7342 10.8728 76.5251 10.1266 77.3004 9.6608C78.0757 9.19504 78.5379 9.1318 78.7045 9.30774C78.8711 9.48367 79.1284 9.6116 79.1366 9.78847C79.1448 9.96534 79.0058 10.485 79.0999 10.7822C79.1939 11.0794 81.4284 13.2526 82.3178 14.0227C83.2072 14.7923 85.348 15.9746 85.6099 16.2017C85.8717 16.4287 86.5117 17.0407 86.3102 17.2667C86.1087 17.4926 85.6013 17.6154 85.47 18.0136C85.3387 18.4117 85.4627 20.6117 84.4099 22.4473C83.3571 24.2824 75.6838 28.0626 73.9928 29.0308C72.3018 29.9985 70.6658 31.787 71.1482 33.757C71.6306 35.727 75.6457 36.4099 77.8003 36.9418C79.955 37.4737 89.6522 41.7114 89.8405 42.9337C90.0288 44.1561 78.0696 58.2752 73.3431 62.5616C68.6165 66.848 61.4534 74.209 57.9165 74.1301Z" fill="#BAB3DD"/>
<path id="94" d="M58.2679 73.7311C54.731 73.6527 51.9691 72.3195 51.196 71.0984C50.4229 69.8774 50.4044 68.4927 51.3957 67.3854C52.3869 66.2782 61.6891 55.5071 63.1203 53.3864C64.5511 51.2657 65.9063 48.4044 65.363 46.9409C64.8197 45.4778 62.5434 45.1121 60.4777 45.2246C58.4121 45.3372 54.7753 45.3572 53.3855 45.5429C51.9958 45.7287 53.1551 36.5152 53.4768 34.2056C53.7981 31.896 53.9226 30.4317 58.2568 28.4218C62.5905 26.4119 67.1953 25.832 69.6363 24.8971C72.0769 23.9619 75.8032 22.3785 75.5358 20.4434C75.2684 18.5087 74.9553 15.4398 75.3452 13.1557C75.7352 10.8717 76.5261 10.1255 77.3014 9.65969C78.0766 9.19393 78.5388 9.13069 78.7054 9.30663C78.872 9.48257 79.1294 9.61048 79.1376 9.78735C79.1458 9.96422 79.0068 10.4839 79.1008 10.7811C79.1949 11.0782 81.4293 13.2514 82.3187 14.0216C83.2082 14.7912 85.349 15.9735 85.6108 16.2005C85.8726 16.4276 86.2553 16.744 86.0538 16.9699C85.8523 17.1958 85.345 17.3186 85.2137 17.7168C85.0824 18.115 85.2063 20.3149 84.1535 22.1505C83.1008 23.9856 75.4274 27.7659 73.7364 28.734C72.0455 29.7021 70.4095 31.4902 70.8919 33.4602C71.3742 35.4302 75.1695 36.3329 77.3241 36.8653C79.4788 37.3972 89.4333 41.9305 89.6216 43.1528C89.8099 44.3752 78.0706 58.2741 73.344 62.5605C68.6175 66.8469 61.8048 73.8095 58.2679 73.7311Z" fill="#3B3B3B"/>
<path id="93" d="M53.7616 69.1135C54.0493 71.3262 57.3513 71.3601 58.8991 71.9973C59.7133 72.3328 60.9897 72.4122 62.0955 72.2246C60.6266 73.1706 59.3056 73.7541 58.2674 73.7311C54.7305 73.6527 51.9686 72.3195 51.1955 71.0985C50.4224 69.8774 50.4039 68.4927 51.3951 67.3855L54.8173 63.432C55.8084 62.276 56.9097 60.9846 57.9819 59.7156C55.3852 63.6987 53.5757 67.6813 53.7616 69.1135ZM86.096 40.7043L85.4446 39.9813C86.7657 41.4281 87.9995 42.8373 89.1452 44.2091C86.9875 47.6609 78.1512 58.0193 73.8221 62.117L73.3435 62.5614C70.6907 64.9673 67.3809 68.2159 64.3624 70.5894L64.5913 69.7096C65.5009 66.024 67.5086 56.3666 69.0513 53.2852C70.254 50.8836 75.6079 46.522 85.1138 40.201C85.4527 40.3693 85.7802 40.538 86.096 40.7043ZM58.0931 28.4985L57.9935 28.6747C56.1192 32.0631 57.9645 33.4576 59.4016 34.5872C61.1027 35.9246 61.3327 39.9377 66.8681 41.1616L67.4366 41.3469C71.5847 42.4793 67.6833 48.0191 63.5325 52.75C64.7953 50.7231 65.8525 48.2616 65.362 46.9405C64.8575 45.5817 62.8588 45.1693 60.9217 45.2076L59.2169 45.278C57.1623 45.3495 54.5215 45.3906 53.3841 45.5426C52.0973 45.7148 52.996 37.8281 53.3914 34.8256L53.5688 33.5448C53.8593 31.6293 54.3365 30.2725 58.0931 28.4985Z" fill="#7152CB"/>
<path id="92" d="M68.9925 40.3473C73.8525 41.2011 76.151 44.0441 73.0978 49.2067C71.2068 52.4033 63.9403 58.5043 51.2977 67.5089L55.9756 62.0785C58.7304 58.85 61.8803 55.1005 62.937 53.6459L63.1197 53.3865C64.5505 51.2658 65.9057 48.4045 65.3624 46.941C64.8579 45.5823 62.8592 45.1698 60.9221 45.2081L59.2172 45.2785C57.1627 45.3501 54.5219 45.3912 53.3845 45.5431C52.7415 45.629 53.004 40.5932 53.1172 38.2695C55.9906 39.648 58.4888 40.327 60.612 40.307C63.7971 40.2766 66.728 39.9495 68.9925 40.3473ZM57.1884 32.642L58.1111 32.5317C61.865 32.1726 67.8666 32.5505 67.7969 34.0099C67.735 35.3077 57.822 36.2238 53.0894 37.3127L53.3872 34.8643L53.5925 33.3988C55.0992 33.0067 56.362 32.7636 57.1884 32.642Z" fill="#674DC5"/>
<path id="91" d="M76.7741 10.0453C78.3113 11.9156 79.3294 13.3401 79.8283 14.3193L80.7225 16.3198C81.6863 18.5708 82.7396 21.5861 81.4377 23.158C79.7637 25.179 75.7896 26.4695 72.7949 28.0627C69.8003 29.6558 67.2181 31.6654 64.8526 31.7985C62.4877 31.9321 60.43 31.7626 58.47 31.9041C57.4477 31.9777 55.7434 33.0447 53.358 35.1045L53.5703 33.5372C53.8636 31.5984 54.3547 30.2313 58.2553 28.4224C62.589 26.4124 67.1938 25.8326 69.6348 24.8977L70.9378 24.3774C73.2066 23.4247 75.757 22.0567 75.5343 20.444C75.2669 18.5093 74.9538 15.4404 75.3437 13.1563C75.6362 11.443 76.1541 10.5952 76.722 10.0819L76.7741 10.0453Z" fill="#DFA76D"/>
<path id="90" d="M75.702 11.7249C76.668 11.4956 77.3798 11.6831 77.7259 12.4331C79.9381 17.2255 80.0565 19.8268 78.446 22.9265C76.9251 25.8543 72.4149 26.789 68.3321 28.4789L67.6166 28.7853C63.3591 30.6788 58.9358 30.6769 57.5697 31.307C56.7421 31.6889 55.5064 32.7698 53.8635 34.5496L53.3581 35.1045L53.5704 33.5372L53.6799 32.9107C54.0152 31.289 54.7883 30.0303 58.2555 28.4223C62.5892 26.4124 67.194 25.8325 69.635 24.8977L70.938 24.3774L71.7959 24.0012C73.8008 23.0792 75.7291 21.8549 75.5345 20.4444C75.2671 18.5097 74.954 15.4408 75.3439 13.1568C75.4088 12.7759 75.4852 12.438 75.5703 12.137L75.702 11.7249Z" fill="#F4C782"/>
<path id="89" d="M78.704 9.30716C78.8706 9.48309 79.128 9.61101 79.1362 9.78788C79.1426 9.92053 79.0658 10.2459 79.0666 10.5259L79.1978 10.9749L78.7762 11.8965C78.3195 12.941 78.1747 13.998 78.4755 15.5134C78.8248 17.2724 78.6989 19.3012 77.3227 21.5218C75.9465 23.7423 73.7593 25.1447 69.8588 26.4356C68.383 26.8768 66.6941 27.4012 64.7921 28.0078C61.9393 28.9179 60.3377 29.5089 58.8911 30.1316C56.8652 31.0033 55.8069 32.0666 54.7145 33.1891C54.4505 33.4604 53.8994 33.2759 53.6279 33.207L53.754 32.6006C54.1266 31.1245 55.0125 29.9261 58.2558 28.4223C62.5895 26.4124 67.1943 25.8325 69.6354 24.8977L70.9383 24.3773C73.2071 23.4247 75.7575 22.0566 75.5348 20.4439C75.2674 18.5092 74.9543 15.4403 75.3443 13.1563C75.7342 10.8722 76.5251 10.126 77.3004 9.6602C78.0748 9.19446 78.5374 9.13122 78.704 9.30716Z" fill="#9F4C0B"/>
<path id="88" d="M78.7038 9.30717C78.8704 9.48311 79.1278 9.61102 79.136 9.78789C79.1424 9.92054 79.0656 10.2459 79.0664 10.5259L79.0992 10.7816L78.6777 11.7033C78.221 12.7477 77.922 13.729 78.158 15.115C78.461 16.8969 78.5245 19.3224 76.8957 21.5513C75.3685 23.6405 73.5879 24.9071 69.6874 26.1981L65.2384 27.5984C62.3856 28.5085 60.0384 29.3075 58.5913 29.9303C56.5654 30.802 55.5531 31.8035 54.4606 32.926C54.1967 33.1973 53.8996 33.2754 53.6281 33.207L53.7542 32.6006C54.1269 31.1244 55.0128 29.9261 58.2561 28.4223C62.5897 26.4124 67.1945 25.8325 69.6356 24.8976L70.9386 24.3773C73.2073 23.4246 75.7577 22.0566 75.5351 20.4439C75.2677 18.5092 74.9546 15.4403 75.3445 13.1562C75.7345 10.8722 76.5254 10.126 77.3007 9.6602C78.0746 9.19448 78.5372 9.13124 78.7038 9.30717Z" fill="#FBD47F"/>
<path id="87" d="M78.7045 9.3073C78.8711 9.48324 79.1285 9.61115 79.1367 9.78803C79.143 9.92067 79.0663 10.246 79.067 10.526L79.0999 10.7817L78.6784 11.7034C78.2216 12.7478 77.9227 13.7292 78.1586 15.1151C78.4616 16.897 78.5252 19.3225 76.8963 21.5514C75.3692 23.6407 73.5886 24.9073 69.6881 26.1982L65.239 27.5985L63.4164 28.1883C61.3876 28.8553 59.7172 29.4461 58.592 29.9305C56.5661 30.8022 55.5537 31.8036 54.4613 32.9261C54.362 33.0285 54.2579 33.1034 54.1521 33.1532C54.5617 32.3057 55.3445 31.0314 56.8731 30.1775C59.1282 28.9175 63.9903 27.2288 67.4938 26.3126L68.2762 26.1154C71.7986 25.2648 74.4358 23.7048 75.8544 22.344C77.273 20.9832 77.9314 18.1593 77.9221 16.8992C77.9132 15.639 76.8511 14.0705 77.5974 12.185C78.1784 10.7176 78.3 9.76771 78.0271 9.30123C78.3761 9.18071 78.599 9.19655 78.7045 9.3073Z" fill="#F4AA5A"/>
<path id="86" d="M80.1605 39.9735L73.7343 36.9886C72.5168 36.4113 71.8041 36.0418 71.4106 35.7768C69.6182 34.5698 68.9199 32.1378 70.5333 30.2381C71.4239 29.1895 72.986 28.1024 75.5601 26.6253L79.9065 24.1986L80.1497 24.0586C82.7364 22.5605 84.0204 20.838 84.2138 18.9676L84.2393 18.5334C84.2598 17.0795 84.543 16.2874 85.2438 16.2646C85.418 16.2587 85.5644 16.3968 85.5703 16.5724C85.5744 16.7042 85.4986 16.8202 85.3871 16.872L85.2651 16.9009C85.0705 16.9074 84.8873 17.4186 84.8714 18.5422C84.8391 20.8245 83.4315 22.8926 80.4652 24.6105L76.5958 26.7687C73.6532 28.4215 71.9187 29.5869 71.014 30.652C69.6788 32.2241 70.255 34.2314 71.7618 35.2465C72.1132 35.4833 72.7857 35.8321 73.9204 36.3718L79.9129 39.1519L82.6531 40.4715C86.5069 42.3806 87.8377 46.1642 86.9681 48.6176C86.4686 50.0261 67.354 68.9608 64.9954 70.3748C63.4191 71.3196 61.4285 72.3991 58.7923 73.6344L55.1725 72.5392C53.9093 72.1471 53.1053 71.8806 52.7556 71.7382C51.3465 71.1637 50.5654 69.008 51.8883 67.6068L53.2061 66.1449C56.3662 62.566 63.0731 54.6781 64.3012 52.9717C66.2582 50.253 67.1083 47.9984 66.5077 46.589C65.6542 44.5845 64.6936 43.9665 61.7197 44.0829L59.5846 44.1887C57.4953 44.31 54.8948 44.5047 51.7845 44.7716C49.7107 44.9497 50.7396 44.4219 54.8709 43.1881C57.6052 42.975 59.8856 42.9326 61.6073 42.8447C65.0386 42.6702 66.7576 43.5037 67.647 46.0693C68.2519 47.8145 67.8812 50.5716 65.6325 53.4421L64.3446 53.9619C61.9821 56.9783 54.0775 66.2111 52.3466 68.0451C51.3661 69.084 51.9607 70.7258 52.9927 71.1466L53.5605 71.3533C54.4873 71.6723 56.2554 72.2333 58.74 73.0429L60.6891 72.0407C62.2289 71.233 63.5565 70.495 64.6725 69.8262C66.917 68.4811 85.9334 49.6434 86.3734 48.4018C87.1386 46.2425 85.9291 42.8026 82.375 41.042L81.7323 40.7262C81.2322 40.4847 80.7114 40.2344 80.1605 39.9735Z" fill="#5A37B5"/>
<path id="85" d="M54.8697 43.1895C57.604 42.9763 59.8844 42.934 61.6061 42.8461C65.0374 42.6715 66.7564 43.5051 67.6457 46.0707C68.2506 47.8159 67.8799 50.573 65.6313 53.4435L64.3434 53.9633L63.247 55.327C62.9103 55.7388 62.7311 55.9282 62.3305 56.4104C62.2866 56.4825 63.1436 57.594 62.4772 58.1199C61.8107 58.6458 61.2572 57.7318 61.1771 57.8108C61.0557 57.9734 60.9456 58.1003 60.7099 58.3805C60.6447 58.481 61.5715 59.2826 60.9516 60.0056C60.3317 60.7286 59.5627 59.7235 59.3899 59.9275C58.1331 61.4116 57.0585 62.678 55.8822 64.0398C54.1582 65.6678 52.5506 67.2591 51.3118 68.6085C51.4098 68.2543 51.598 67.9129 51.8866 67.6073L53.2044 66.1454L57.0319 61.7297C60.0957 58.1511 63.4643 54.1326 64.2995 52.9721C66.2565 50.2535 67.1066 47.9988 66.506 46.5894C65.6525 44.585 64.6919 43.967 61.718 44.0834L59.5829 44.1892L57.9199 44.294C56.7474 44.3728 55.4476 44.4703 54.0197 44.5857L51.7824 44.7725C49.7099 44.9515 50.7384 44.4237 54.8697 43.1895Z" fill="#4A27A6"/>
<path id="84" d="M58.1183 56.896L58.2406 56.8626C58.6945 56.7912 59.9693 58.1039 60.4085 58.7101C60.8477 59.3158 60.8869 59.5892 60.5949 59.8153C60.3029 60.0414 59.902 59.625 59.7065 59.2643C59.5106 58.9037 58.6412 58.1356 58.4404 57.9862C58.2396 57.8369 58.0435 57.8511 57.9223 57.6384C57.8007 57.4257 57.7876 56.9341 58.241 56.8626L58.1183 56.896ZM59.7057 54.9314L59.828 54.898C60.282 54.8266 61.5567 56.1393 61.9959 56.7455C62.4351 57.3512 62.4743 57.6246 62.1823 57.8507C61.8903 58.0768 61.4894 57.6604 61.294 57.2997C61.0981 56.9391 60.2287 56.171 60.0279 56.0216C59.827 55.8723 59.6309 55.8865 59.5097 55.6738C59.3882 55.4611 59.375 54.9695 59.8285 54.898L59.7057 54.9314Z" fill="#9053DC"/>
<path id="83" d="M58.0737 56.917L58.2406 56.8626C58.4618 56.828 58.8784 57.1222 59.2977 57.5031L58.8723 58.3574L58.5424 58.0676C58.4995 58.0322 58.4649 58.0042 58.44 57.9858C58.2391 57.8364 58.043 57.8506 57.9219 57.6379C57.835 57.4859 57.8036 57.1916 57.9577 57.0101L58.0737 56.917ZM59.5795 54.8275L59.7459 54.7695C59.9287 54.741 60.2581 54.9575 60.6148 55.2661C60.4424 55.5144 60.2693 55.7824 60.095 56.0696L60.0274 56.0216C59.8266 55.8723 59.5615 55.8238 59.4399 55.6111C59.353 55.4591 59.3148 55.131 59.4651 54.93L59.5795 54.8275Z" fill="#8343D1"/>
<path id="82" d="M61.6506 53.299C62.3167 53.4016 63.0163 53.2679 63.6485 52.782C64.2807 52.2961 65.3115 51.0472 65.8268 49.8457C66.342 48.6442 66.3627 48.1985 66.408 47.5047C66.4532 46.8109 65.2717 44.9039 64.2561 44.5953C63.2405 44.2868 64.4623 44.9315 64.9053 46.0412C65.3479 47.151 65.186 49.3639 64.463 50.4927C63.7404 51.6215 60.9848 53.1964 61.6506 53.299Z" fill="#8A532D"/>
<path id="81" d="M62.5794 53.2502C63.0681 53.1271 64.1918 52.1128 64.9389 50.9439C65.6859 49.7749 66.2676 47.9742 66.2447 47.3854C66.2219 46.7966 65.2495 44.6671 63.6122 44.3753C61.975 44.0835 56.5374 44.5244 55.5672 44.6756C54.9207 44.7763 54.4439 44.8543 54.1368 44.9091C56.4782 46.0498 57.7889 46.6546 58.068 46.7237C58.487 46.8278 59.726 46.8444 60.7361 46.8772C61.7462 46.91 63.1556 46.6404 63.4948 47.3141C63.8341 47.9878 63.6175 48.284 63.4411 48.6733C63.2647 49.0626 62.5677 50.2134 62.057 50.4567C61.5463 50.7003 60.8372 50.4582 60.2224 49.9836C59.6076 49.5091 58.9438 48.5901 58.0211 48.2307C57.4061 47.991 56.9249 47.7592 56.5784 47.5352L52.9156 45.0945L49.909 50.0043C52.0087 50.3836 53.3392 50.5566 53.9004 50.5238C54.742 50.4747 55.2195 50.3501 55.5692 50.4344C55.9188 50.5188 57.2448 50.6749 57.4138 50.9304C57.5829 51.1859 57.7336 51.5046 57.9475 51.6343C58.1615 51.764 59.6547 52.5277 60.5749 52.9927C61.4943 53.4577 62.0907 53.3733 62.5794 53.2502Z" fill="#C28D59"/>
<path id="80" d="M49.9091 50.004L52.9157 45.0943L56.5785 47.5349C56.6383 47.5733 56.702 47.6125 56.7694 47.6515C54.9185 48.1738 53.7152 48.7053 53.1615 49.246C52.7589 49.6388 52.7369 50.0537 53.0953 50.4906C52.4864 50.431 51.6176 50.3034 50.4928 50.1078L49.9091 50.004ZM54.1368 44.9089L55.5672 44.6753C56.0221 44.6042 57.4583 44.4698 59.0245 44.3773C58.5792 45.2201 58.4248 45.7599 58.5582 45.9968C58.6987 46.2461 58.9493 46.5245 59.3094 46.8312L58.7041 46.801C58.4293 46.7823 58.2049 46.7576 58.0676 46.7239L57.8419 46.6446C57.3233 46.4376 56.088 45.8591 54.1368 44.9089Z" fill="#BD7E59"/>
<path id="79" d="M54.3062 50.117C53.4768 49.9618 53.1549 49.6981 53.7645 49.6401C54.3742 49.5821 56.6413 50.2192 56.9696 50.3457C57.298 50.4723 58.2565 51.1817 59.0576 51.7117L59.3266 51.8974C60.0291 52.4095 61.3119 53.1583 62.3441 52.8777C63.3764 52.5971 64.2077 51.5419 64.7147 50.6833C65.2216 49.8243 66.1736 48.0724 65.8361 46.7473C65.6889 46.17 65.2754 45.3944 64.5663 44.7846C65.6201 45.5039 66.2263 46.9216 66.2444 47.3853C66.2673 47.9746 65.6851 49.7749 64.9385 50.9438C64.1919 52.1127 63.0682 53.127 62.579 53.2501C62.0903 53.3732 61.4934 53.4577 60.5736 52.9927L57.9463 51.6342C57.8391 51.5691 57.7481 51.457 57.6629 51.3295L57.413 50.9303C57.2439 50.6749 55.9185 50.5187 55.5684 50.4344C55.4079 50.3956 55.2203 50.401 54.9832 50.4227L54.5894 50.2181C54.4763 50.1658 54.3816 50.1311 54.3062 50.117Z" fill="#E1AE86"/>
<path id="78" d="M58.7102 48.6205C59.2952 49.0504 59.7329 49.5372 60.1831 49.885C60.7979 50.3595 61.5 50.5192 62.0107 50.2755C62.4575 50.0624 63.0258 49.3352 63.2845 48.8512L63.3738 48.6726C63.5502 48.2833 63.6271 47.7061 63.4946 47.3144C63.4569 47.2029 63.3641 47.1289 63.2658 47.0649C63.5765 47.1826 63.8159 47.4162 63.8746 47.6608C64.015 48.2464 63.7858 48.9205 62.9371 49.9741C62.0884 51.0276 61.321 50.8401 60.5645 50.4295C60.2616 50.265 59.9433 49.9663 59.629 49.634L58.7102 48.6205ZM56.2222 50.5503L55.568 50.4339C55.2184 50.3496 54.7408 50.4741 53.8992 50.5233C53.4505 50.5494 52.5091 50.4438 51.0755 50.2065L49.9078 50.0038L50.438 49.1489L52.9679 49.8341C53.2191 49.9184 54.6503 50.0064 55.2779 50.1554C55.5337 50.2162 55.8687 50.3592 56.2222 50.5503Z" fill="#925728"/>
<path id="77" d="M51.0464 18.1918C50.6704 18.017 49.9263 18.2009 49.334 18.7719C48.7417 19.3428 45.8177 25.655 45.3336 26.3214C45.2187 26.5209 45.1429 26.6937 45.1062 26.8402C44.7776 26.9744 44.5288 27.3043 44.3598 27.8298C44.1062 28.6182 41.8631 33.012 41.5444 34.0691C41.2256 35.1262 39.7738 38.3744 39.6771 38.6744C39.5804 38.9744 36.9711 44.6523 36.4475 46.1975C35.9244 47.7428 35.9128 48.4512 35.693 49.0838C35.4732 49.7165 34.6787 51.1405 34.4229 51.6862C34.1675 52.2314 32.9851 52.8043 32.8061 53.3073C32.627 53.8103 32.2472 54.193 31.8105 54.8289C31.3738 55.4647 30.0064 58.0665 29.5928 58.97C29.1791 59.8736 28.4923 61.8618 27.8466 63.2763C27.2013 64.6907 26.9063 64.7773 26.4071 66.1393C25.908 67.5018 25.4515 69.0637 25.3739 69.5211C25.2964 69.9784 24.6167 71.0155 24.2436 71.7978C23.8705 72.5802 23.8393 73.3537 23.1025 73.9712C22.3657 74.5887 21.9892 75.5184 23.1981 75.4801C24.407 75.4418 31.2043 72.5804 33.0724 71.4444C34.9405 70.3079 36.9073 68.017 38.4267 66.9401C39.9461 65.8633 42.5006 63.7208 43.9014 62.3149C45.3022 60.909 48.745 56.2267 50.4189 53.5934C52.0928 50.9601 53.6895 47.8206 53.8234 47.3772C53.9127 47.0818 53.6041 46.2698 52.8982 44.9411C54.8114 44.5936 55.8263 44.3542 55.9421 44.2236C56.1156 44.0276 59.8026 37.2519 60.0664 36.5937C60.3303 35.9355 60.2695 34.7619 58.2555 33.6034C56.2414 32.4449 51.9563 28.1563 51.3649 25.4539C50.7735 22.7511 51.7759 20.0046 51.7997 19.6147C51.823 19.2249 51.4224 18.3661 51.0464 18.1918Z" fill="#A089E5"/>
<path id="76" d="M51.0458 18.1921C50.6698 18.0173 49.9257 18.2012 49.3334 18.7722C48.7411 19.3431 45.8171 25.6553 45.3329 26.3217C45.2181 26.5212 45.1423 26.694 45.1056 26.8405C44.777 26.9747 44.5282 27.3045 44.3591 27.83C44.1056 28.6185 41.8625 33.0123 41.5437 34.0694C41.225 35.1265 39.7731 38.3747 39.6765 38.6747C39.5798 38.9747 36.9705 44.6526 36.4469 46.1978C35.9238 47.7431 35.9122 48.4515 35.6924 49.0841C35.4726 49.7168 34.6781 51.1408 34.4223 51.6865C34.1669 52.2317 32.9845 52.8046 32.8054 53.3076C32.6264 53.8106 32.2466 54.1933 31.8099 54.8291C31.3732 55.465 30.0058 58.0668 29.5921 58.9703C29.1785 59.8739 28.4917 61.8621 27.846 63.2766C27.2007 64.691 26.9057 64.7776 26.4065 66.1396C25.9074 67.5021 25.4509 69.064 25.3733 69.5213C25.2958 69.9787 24.6161 71.0158 24.243 71.7981C23.8699 72.5805 23.8386 73.354 23.1018 73.9715C22.365 74.589 21.6676 75.2738 22.8765 75.2355C24.0854 75.1972 30.9693 72.2504 32.8373 71.1139C34.7054 69.9774 36.6722 67.6864 38.1916 66.6096C39.711 65.5328 42.2655 63.3903 43.6664 61.9844C45.0672 60.5785 48.51 55.8962 50.1838 53.2629C51.8577 50.6296 53.3413 47.6748 53.4752 47.2318C53.5645 46.9365 53.256 46.1244 52.55 44.7957C54.5286 44.4376 55.5757 44.1937 55.6915 44.0631C55.865 43.8671 59.3118 37.2009 59.5761 36.5427C59.8399 35.8845 59.5854 34.9263 57.5713 33.7678C55.5572 32.6093 51.7618 28.3724 51.17 25.6696C50.5781 22.9668 51.5476 19.6636 51.5714 19.2737C51.5947 18.8838 51.4218 18.3664 51.0458 18.1921Z" fill="#D7D4DD"/>
<path id="75" d="M51.1721 25.6814C51.7348 28.2156 55.0985 32.0885 57.1738 33.5157L57.5704 33.7676C59.5845 34.9261 59.839 35.8843 59.5752 36.5425L59.3936 36.9355C58.6218 38.5324 55.8462 43.8876 55.6906 44.0628C55.5749 44.1935 54.5277 44.4374 52.5492 44.7955C53.2551 46.1238 53.5636 46.9358 53.4744 47.2316L53.3633 47.5101C52.9667 48.4087 51.6475 50.9584 50.183 53.2631C48.5091 55.8964 45.0663 60.5788 43.6655 61.9847C42.2647 63.3906 39.7101 65.533 38.1908 66.6099C36.6714 67.6867 34.7046 69.9781 32.8365 71.1141C31.7797 71.7573 29.1164 72.98 26.7845 73.9275C26.9802 73.2482 26.7545 72.3741 27.4015 71.8945L27.7428 71.6704C30.6486 69.9897 30.1543 65.2424 32.1207 62.7265C34.0871 60.2106 35.1374 58.1809 35.4073 56.7541C35.6772 55.3273 35.2914 54.2739 35.9453 51.673L38.51 47.9163C40.3015 45.2561 41.4684 43.4232 42.0098 42.4181C43.161 40.2829 44.3761 33.9961 45.6978 33.834C47.0196 33.6718 48.53 33.0739 48.814 31.6846C48.9298 31.1187 49.3569 29.9929 49.9365 28.5909L51.1721 25.6814Z" fill="#757575"/>
<path id="74" d="M57.1751 33.5156L57.5717 33.7676C59.5857 34.926 59.8403 35.8842 59.5764 36.5424L59.3948 36.9355L57.6995 40.2842C56.7502 42.1237 55.7818 43.9611 55.6923 44.0628C55.5765 44.1934 54.5294 44.4374 52.5509 44.7955C53.2567 46.1237 53.5653 46.9357 53.476 47.2315L53.365 47.5101L53.1191 48.0353C52.6097 49.0827 51.6253 50.9349 50.5198 52.7279L50.1847 53.2631C48.5108 55.8964 45.068 60.5787 43.6672 61.9846C42.2664 63.3905 39.7118 65.533 38.1924 66.6098C36.673 67.6866 34.7062 69.978 32.8382 71.114C31.7813 71.7573 29.1181 72.9799 26.7861 73.9274C26.9819 73.2481 27.4125 72.5896 28.0591 72.11L28.4005 71.886C28.8707 71.614 29.2868 71.2834 29.6625 70.9107L32.3901 69.05C33.2805 68.4339 33.9303 67.9711 34.339 67.6613C36.3099 66.166 43.776 56.0228 45.1533 52.4648C46.5302 48.9073 42.4699 49.3614 43.0995 47.247C43.7291 45.1326 48.3716 41.4934 49.3578 39.841L49.8375 38.9909C50.7717 37.2802 52.5144 33.8862 54.067 30.566C55.1193 31.8052 56.2698 32.8932 57.1751 33.5156Z" fill="#3B3B3B"/>
<path id="73" d="M30.3673 60.5245C30.6316 60.7738 30.8588 61.257 31.0486 61.9743L31.1579 62.4325C31.4417 63.7453 31.9629 65.4372 32.0601 66.1892L32.0757 66.4035C32.0696 66.9887 32.2473 67.561 32.4011 67.7964C32.5549 68.0323 32.7508 69.2575 32.8244 69.6936C32.8734 69.9841 32.915 70.3496 32.9501 70.7895L32.7123 69.8711C32.6464 69.594 32.5934 69.3456 32.5537 69.1259L32.5036 68.8184C32.4465 68.41 32.4183 68.3027 32.3422 68.2245L32.0564 67.9843C31.7681 67.7044 31.5636 67.608 31.6025 67.8004L31.7581 68.2357C31.9395 68.7726 32.1933 69.6641 32.0471 69.5023L31.8671 69.266C31.7083 69.041 31.4725 68.6803 31.1592 68.1847C30.8083 67.692 30.6311 67.3612 30.6272 67.1927L30.6939 65.9386C30.7267 65.0439 30.7156 63.8951 30.468 63.2462L29.7025 61.2735L30.3673 60.5245Z" fill="#4433A5"/>
<path id="72" d="M36.667 50.8626C37.9242 50.045 39.5351 50.4002 42.0079 50.1823C44.2962 49.9805 49.2392 50.7346 51.3512 51.3376C50.9819 51.9691 50.5879 52.6251 50.1832 53.2622C48.621 55.7202 45.5177 59.963 43.972 61.6606L43.6658 61.9837C43.6004 62.0493 43.5328 62.1163 43.4626 62.1851C42.0971 63.003 41.096 63.3426 40.4493 63.2094C39.3568 62.9846 35.8613 60.7561 34.4987 60.2236C33.1362 59.691 29.9513 59.3475 29.9312 59.3571L31.0879 57.6972C31.175 57.5737 31.2668 57.4433 31.3637 57.3057L34.5174 57.9579C36.7453 58.4061 39.8085 59.7804 40.4461 59.9639C41.0838 60.1475 42.2902 57.6657 42.5613 56.6311C42.8114 55.6759 41.444 54.9453 39.829 54.2011L39.4211 54.0148C37.8357 53.2947 36.8723 52.9692 35.791 52.9722L35.3788 52.9887C34.1162 53.0828 35.4102 51.6803 36.667 50.8626Z" fill="#694ABE"/>
<path id="71" d="M25.6295 68.8145C26.2291 68.8736 27.0504 68.7995 27.0172 68.9746C26.9836 69.1492 26.943 69.396 26.8702 69.5638C26.7973 69.7316 25.6489 70.269 24.994 70.5851L24.8551 70.6543C25.1092 70.1942 25.3315 69.7708 25.3738 69.5208C25.3978 69.3791 25.4588 69.1303 25.5456 68.8145C25.5766 68.8104 25.6032 68.8122 25.6295 68.8145ZM40.8203 54.2663C41.2424 54.0416 42.2481 53.9049 42.7106 53.8936C43.173 53.8818 43.1946 54.0614 43.2063 54.3768C43.2179 54.6927 42.765 54.8111 42.6095 54.8472C42.454 54.8834 41.4677 55.0566 41.2831 55.1299C41.0986 55.2032 40.8524 55.516 40.9159 55.5475C40.9795 55.5791 41.2655 55.5147 41.5334 55.5971C41.8013 55.6795 41.6355 56.2773 41.5138 56.4006C41.392 56.5238 40.347 56.5807 39.8598 56.638C39.3726 56.6953 39.3478 57.0074 39.6365 56.9317C39.9252 56.856 40.1338 57.1827 40.202 57.2763C40.2706 57.3699 40.2342 57.8814 39.9942 57.9247C39.7542 57.9685 38.1737 58.3297 38.0403 58.3612C37.9068 58.3927 37.91 58.58 38.2541 58.4864C38.5982 58.3929 38.5946 58.8309 38.6201 59.035C38.6451 59.2386 37.4395 59.5237 37.1842 59.5626C36.9612 59.5969 36.8357 59.6853 36.9413 59.924L37.0628 60.1501C37.2153 60.4692 37.2642 60.885 37.1312 60.9603C36.9817 61.0446 35.5225 61.5505 35.1027 61.65C34.683 61.7495 34.5822 60.9551 34.8377 60.8398C35.0933 60.7244 36.5064 60.1233 36.6689 60.0967C36.8314 60.0706 36.5781 59.9327 36.4 59.8851C36.2219 59.8374 36.091 59.6389 36.1159 59.3424C36.1407 59.046 37.0022 58.6402 37.3416 58.5799C37.6805 58.5196 37.717 58.5095 37.5644 58.1985C37.4122 57.8875 37.7074 57.4815 37.9733 57.3703C38.2392 57.2591 39.0603 57.1537 39.2081 57.0673C39.3558 56.9808 39.3229 56.6946 39.1554 56.5053C38.988 56.316 39.1098 55.787 39.2777 55.7617C39.4455 55.7363 40.3417 55.5606 40.5693 55.5181C40.7965 55.4757 40.9077 55.228 40.9677 55.1594C41.0272 55.0909 40.7029 55.1651 40.5959 54.9483C40.4879 54.7321 40.3983 54.4911 40.8203 54.2663ZM44.1909 52.1359C44.4094 52.1863 44.5604 52.8547 44.333 52.9746C44.1055 53.094 42.4889 53.6581 42.0893 53.5382C41.6901 53.4183 41.7283 52.9653 41.9506 52.7929C42.1732 52.6204 43.9727 52.0854 44.1909 52.1359ZM45.4825 50.3469C45.7011 50.3973 45.852 51.0658 45.6246 51.1856C45.3971 51.3055 43.7805 51.8692 43.3809 51.7493C42.9818 51.6294 43.0199 51.1764 43.2422 51.0039C43.4649 50.8315 45.2639 50.2965 45.4825 50.3469ZM46.4491 48.6921C46.7277 48.7321 46.9372 49.3723 46.618 49.5089C46.2988 49.6455 44.911 49.9949 44.5119 49.8746C44.1127 49.7547 44.1509 49.3017 44.3732 49.1292C44.5954 48.9572 46.1705 48.652 46.4491 48.6921ZM47.473 47.0135C47.7516 47.0535 47.9611 47.6938 47.6419 47.8303C47.3227 47.9669 45.9743 48.3236 45.5747 48.2037C45.1755 48.0838 45.2137 47.6309 45.436 47.4584C45.6586 47.2859 47.1944 46.9735 47.473 47.0135ZM48.5369 45.2362C48.8155 45.2762 49.025 45.9164 48.7058 46.053C48.3866 46.1896 47.0382 46.5463 46.6386 46.4264C46.239 46.3065 46.2776 45.8535 46.4999 45.6811C46.7225 45.5086 48.2583 45.1961 48.5369 45.2362Z" fill="#2B2D2E"/>
<path id="70" d="M49.3345 18.7719C49.9267 18.2009 50.6709 18.017 51.0469 18.1918C51.4229 18.3665 51.5962 18.884 51.5725 19.2739L51.5185 19.577C51.3182 20.5343 50.6584 23.3273 51.1711 25.6698C51.7257 28.2038 55.0964 32.0859 57.1749 33.5156L57.5719 33.768C58.6221 34.372 59.194 34.9217 59.4634 35.4027C59.4868 36.1941 59.2838 37.0373 59.1379 37.4664L58.9974 37.7396L59.0007 37.6746C59.0798 37.084 58.1997 36.2849 57.2083 35.2071C56.217 34.1293 52.1579 31.065 50.65 27.6511C49.1418 24.2372 49.8531 21.7454 50.2682 20.573C50.6827 19.4006 50.1511 19.1596 49.8746 18.8892C49.7899 18.8059 49.5166 18.8646 49.1747 18.9849L49.2067 18.9302L49.3345 18.7719Z" fill="#FFD895"/>
<path id="69" d="M57.1744 33.5152L57.5714 33.7675C58.6216 34.3716 59.1935 34.9213 59.4629 35.4022C59.4863 36.1936 59.2833 37.0369 59.1374 37.4659L58.9969 37.7391L59.0002 37.6742C59.0793 37.0835 58.1992 36.2845 57.2078 35.2067L56.7673 34.7723C55.6871 33.763 53.5058 31.9397 51.9283 29.7988C51.7568 28.8858 51.6888 27.9357 51.6613 27.0133C52.7997 29.415 55.4378 32.3207 57.1744 33.5152Z" fill="#FFCA6F"/>
<path id="68" d="M46.3528 27.089C46.5527 27.4786 45.9489 28.9571 45.7147 29.668C45.48 30.379 45.0375 32.2299 45.4169 32.8388C45.7963 33.4478 48.3715 35.804 48.6618 36.4462C48.9522 37.0888 48.4866 38.5029 48.1755 39.1948C47.8643 39.8862 47.1343 41.187 46.6429 41.4654L43.8038 42.8537C43.3621 43.0765 43.0004 43.2712 42.8407 43.388C42.3367 43.7572 39.7709 48.7707 37.8804 51.0758L36.5659 52.5738C35.1126 54.2735 33.9328 55.88 33.3024 56.7916L31.9536 58.8659C31.2999 59.8673 30.5833 60.9056 30.0012 61.4731C29.2739 62.182 27.9297 63.7668 27.096 64.6902L27.3625 64.2328C27.5042 63.9819 27.6613 63.6845 27.8478 63.2756C28.493 61.8612 29.1798 59.8729 29.5939 58.9694L29.9416 58.2526C30.5175 57.1038 31.4624 55.3369 31.8116 54.8282L32.4062 54.0174C32.578 53.7794 32.7179 53.5576 32.8072 53.3062C32.9863 52.8032 34.1686 52.2303 34.424 51.6851C34.6794 51.1399 35.4744 49.7154 35.6942 49.0827C35.914 48.4501 35.9251 47.7417 36.4487 46.1964L36.694 45.5415C37.5206 43.4558 39.5921 38.9403 39.6782 38.6733L41.002 35.5164C41.1219 35.221 41.2334 34.9406 41.3272 34.6926L41.5455 34.068C41.8414 33.0863 43.7968 29.2276 44.2773 28.05L44.3604 27.8282C44.5295 27.3027 44.7783 26.9729 45.1069 26.8387L45.1595 26.6764C45.8651 26.7778 46.2625 26.9138 46.3528 27.089Z" fill="#EDEBF0"/>
<path id="67" d="M46.3515 27.0893C46.5514 27.4789 45.9477 28.9573 45.713 29.6683C45.4783 30.3792 45.0358 32.2301 45.4152 32.8391C45.7945 33.448 48.3697 35.8042 48.6601 36.4464C48.9505 37.089 48.4849 38.5032 48.1738 39.1951C47.8626 39.8865 47.1326 41.1873 46.6412 41.4657L43.8021 42.854C43.3604 43.0767 42.9987 43.2714 42.839 43.3883C42.335 43.7574 39.7692 48.771 37.8787 51.0761L36.5642 52.5741C35.1109 54.2737 33.9311 55.8802 33.3007 56.7919L31.9519 58.8662C31.2982 59.8676 30.5816 60.9058 29.9995 61.4733C29.6959 61.7696 29.2848 62.2181 28.848 62.7077C28.9571 62.2378 29.1056 61.7791 29.293 61.3309C30.1654 59.2482 32.1412 56.3934 33.6879 54.9136L34.1373 54.5131C35.6139 53.3039 37.5373 49.769 38.22 47.6378L38.355 47.1724C38.8165 45.3598 41.243 38.9868 42.5822 35.7833L43.9216 32.6716C44.3763 31.5915 45.1534 29.6952 46.2524 26.9832C46.2991 27.0167 46.3322 27.0523 46.3515 27.0893Z" fill="#E9E5E9"/>
<path id="66" d="M45.4692 32.9157L45.4158 32.8395C45.7952 33.4489 48.3704 35.8047 48.6607 36.4468C48.9511 37.0895 48.4855 38.5036 48.1744 39.1955C47.8632 39.8869 47.1332 41.1877 46.6418 41.4661L43.8027 42.8544C43.3611 43.0772 42.9993 43.2719 42.8396 43.3887C42.3356 43.7579 39.7698 48.7714 37.8793 51.0765L36.5648 52.5745C35.1115 54.2742 33.9318 55.8807 33.3014 56.7923L31.9525 58.8666C31.8056 59.0918 31.6556 59.3183 31.5046 59.5413L31.0105 59.2629C30.9338 59.2237 30.8604 59.1889 30.7907 59.1593L30.4811 59.0527L30.9852 58.2716C31.3853 58.0399 31.8648 57.808 32.1351 57.6528C32.6242 57.3718 33.437 55.711 34.0095 54.6213L34.1379 54.5131C35.4998 53.3974 37.2422 50.3025 38.0403 48.1565L38.31 47.8564L38.5597 47.5533C39.4491 46.4108 40.6213 43.6143 41.3359 42.1015C41.7283 41.2711 41.5875 39.922 41.3837 38.7565L42.0489 37.0851L42.6193 37.5284C42.9107 37.7385 43.2038 37.9145 43.4619 37.9802C44.3435 38.204 44.3506 37.1396 44.5616 36.4679L44.632 36.2796C44.7819 35.9493 45.0609 34.8281 45.4692 32.9157Z" fill="#CDCDCD"/>
<path id="65" d="M30.512 58.4511C30.7628 58.2017 30.805 58.3444 31.7832 58.0803C32.0314 58.013 32.2857 57.9858 32.5313 57.9799L31.9286 58.8956L31.3749 58.8293C31.3398 58.8273 31.3131 58.8268 31.295 58.8278C31.0404 58.8456 30.614 58.9171 30.0157 59.0423C30.1794 58.8144 30.3445 58.6174 30.512 58.4511ZM34.5536 51.4232C34.6979 51.3122 34.8341 51.2422 35.0298 51.1994C35.3727 51.1242 36.5269 51.1395 37.4894 51.0969L37.8788 51.0762L36.9507 52.1327L36.2561 52.0413C35.5639 51.9583 34.9267 51.9174 34.7619 52.0684L34.4218 52.4311C33.8351 53.0944 32.8289 54.3328 32.7512 54.4323C32.6727 54.5327 32.5691 54.1562 32.5309 53.829L32.405 54.0182C32.5768 53.7802 32.7168 53.5584 32.8061 53.3069C32.9851 52.8039 34.1675 52.231 34.4229 51.6858L34.5536 51.4232ZM42.8868 31.0388C43.0393 30.9929 43.1482 30.9832 43.1816 31.0032C43.2829 31.0631 42.9577 31.6163 42.6635 32.2696L41.7321 34.567C41.5614 34.9807 41.4058 35.3403 41.3023 35.5354C41.0463 36.0185 43.5224 37.8026 44.4187 38.5385L44.5956 38.6886C44.9754 39.0278 46.2688 39.9423 47.3027 40.7499C47.0704 41.0833 46.8375 41.3558 46.6422 41.4662L43.5218 42.9979C44.2002 42.4426 45.5938 41.6265 45.7794 41.419C45.9822 41.1925 45.3664 40.8835 44.8868 40.4624L44.6923 40.2748C44.3713 39.9288 43.0476 38.98 40.7222 37.4282C40.2816 38.9454 39.976 39.7024 39.8046 39.6993C39.7247 39.6977 39.6193 39.4336 39.5124 39.0679L41.0009 35.5176L41.3261 34.6938L41.5444 34.0692C41.6296 33.7861 41.8533 33.2634 42.1393 32.6349L42.8868 31.0388Z" fill="#908F91"/>
<path id="64" d="M22.5692 75.3108C22.6801 74.6883 22.3572 74.2408 22.0324 74.0985C21.7076 73.9561 20.7497 74.161 20.0329 74.9354C19.3165 75.7097 19.3811 76.4251 19.6719 76.811C19.9626 77.1969 20.6172 77.0708 21.057 76.8459C21.4973 76.621 22.4577 75.9334 22.5692 75.3108Z" fill="#242424"/>
<path id="63" d="M20.3452 75.598C20.1609 76.1204 20.2588 76.3835 20.6594 76.451C21.0605 76.5186 22.6309 76.2086 23.3123 76.1586C23.9937 76.1091 26.0789 75.4601 26.8388 74.9268C27.5986 74.3931 30.7634 69.35 31.4098 67.6725C32.0557 65.995 31.1082 63.6125 30.8939 62.6222C30.6797 61.6318 30.4237 61.0946 30.3557 60.6409C30.2878 60.1873 30.4096 59.9084 30.4156 59.6045C30.4194 59.4017 30.4682 59.2146 30.5617 59.0426C31.4492 58.7026 32.1056 58.521 32.5304 58.4983C33.1684 58.4644 34.2306 58.7304 36.0983 59.5356C37.9659 60.3409 38.6785 60.6361 39.9073 60.8928C41.1361 61.1496 42.4259 61.3422 44.7128 58.165C46.9998 54.9878 47.4123 53.5498 47.0792 52.7077C46.8571 52.1461 46.6996 51.7664 46.6064 51.5676C48.1806 52.2259 49.744 52.5679 51.2975 52.5935C53.6275 52.6323 54.5755 52.5395 55.7929 52.1333C57.0102 51.727 57.6139 51.2814 57.669 51.1119C57.724 50.9425 56.3182 50.5576 55.8657 50.4644C55.4137 50.3712 54.4903 50.4994 54.0527 50.5252C53.6151 50.551 52.4159 50.7151 49.9466 50.3523C47.4773 49.9895 43.5285 48.8729 42.191 48.5587C40.8535 48.2446 37.8211 47.6283 36.6465 47.8955C35.4718 48.1626 34.5763 48.5722 34.8144 49.7148C34.4679 49.7574 33.7892 50.0645 33.818 50.6012C33.8468 51.1379 34.2154 51.6001 35.3063 51.5212C36.3972 51.4423 38.4329 51.8871 39.5684 51.9294C40.704 51.9716 43.8721 52.1068 44.4368 52.1137C45.0014 52.1206 45.4032 52.6801 45.278 52.9752C45.1528 53.2703 41.1082 58.6711 40.8149 58.9549C40.5215 59.2383 40.2911 59.2916 39.0447 58.8109C37.7982 58.3301 35.8954 57.3373 34.3979 56.9865C32.9003 56.6358 32.4634 56.3994 31.7399 56.4355C31.0159 56.4712 31.118 56.4018 30.6385 56.7916C30.1595 57.181 29.4306 57.1443 29.0419 57.7805C28.6535 58.4166 28.072 59.4869 28.7597 61.2827C29.4474 63.0785 30.1277 65.1201 29.873 66.3381C29.6183 67.556 25.3785 73.3287 25.0201 73.6598C24.6617 73.9908 22.9977 74.6727 22.5196 74.6796C22.0415 74.6866 21.5849 74.6033 21.194 74.8021C20.8035 75.0013 20.5294 75.0757 20.3452 75.598Z" fill="#F0EDF4"/>
<path id="62" d="M35.6816 49.7373C39.3337 49.9239 41.6072 50.0701 42.5016 50.1767C43.8431 50.3364 39.6352 49.4046 38.1577 49.4388C37.1728 49.4611 36.3475 49.5608 35.6816 49.7373Z" fill="#D4D4D4"/>
<path id="61" d="M31.4036 64.5538C31.6333 65.5682 31.7727 66.7313 31.4099 67.6726C30.764 69.35 27.5992 74.3931 26.8389 74.9268C26.079 75.4605 23.9938 76.1091 23.3124 76.1587C22.8763 76.1902 22.0766 76.3289 21.4515 76.4066L21.7716 76.2418C21.818 76.2189 21.8608 76.1988 21.9002 76.1805C22.3495 75.9741 23.5229 75.7244 24.2949 75.3393C24.9896 74.9928 24.7409 74.6888 24.3863 74.6731L24.2654 74.6791C23.8567 74.7366 24.6311 74.1135 25.5272 73.5952C26.3487 73.1199 28.146 70.5726 28.9183 69.3027L29.102 68.9906C29.6195 68.0722 30.1233 67.3984 30.3793 66.7436L30.5014 66.3511C30.6786 65.5632 30.911 67.287 30.988 66.6981L31.0841 66.1673C31.1513 65.8333 31.2403 65.4168 31.3201 65.0055L31.4036 64.5538ZM43.8191 52.0418L44.6017 51.88C45.5117 51.7066 45.9146 51.7199 46.1304 52.135L46.2029 52.3098C46.3483 52.7441 46.7425 53.5122 47.0555 54.0557C46.7952 54.9549 46.0975 56.2413 44.713 58.1655C42.426 61.3427 41.1362 61.1501 39.9074 60.8933C38.8193 60.6662 38.1359 60.4085 36.6966 59.7929C36.8949 59.776 37.0807 59.7863 37.2544 59.8224L37.5066 59.8955C38.5152 60.2767 40.12 60.1867 40.0208 59.7384C39.9686 59.5035 39.7967 59.2561 39.6358 59.0223C40.3796 59.2647 40.5764 59.1865 40.815 58.9559C41.1083 58.6725 45.1529 53.2713 45.2782 52.9762C45.4034 52.6811 45.0011 52.1216 44.4369 52.1146L43.6876 52.092C43.7289 52.0648 43.7746 52.0513 43.8191 52.0418ZM46.0661 50.8183C47.9788 51.4602 49.2939 51.7805 50.0114 51.779C51.0874 51.7771 52.0627 50.9678 53.7241 50.9122C54.1085 50.8992 54.3286 50.7447 54.4204 50.5017C54.8848 50.4536 55.5161 50.3931 55.8658 50.4649L56.2821 50.5646C56.8709 50.7183 57.712 50.9805 57.6691 51.1124C57.6141 51.2819 57.0103 51.7275 55.793 52.1338C54.5756 52.54 53.6271 52.6328 51.2976 52.594C50.0034 52.5723 48.7019 52.3313 47.393 51.8704L46.7467 51.6209L46.0661 50.8183Z" fill="#CCCDD8"/>
<path id="60" d="M59.5445 49.3526C59.6502 48.6904 59.6018 48.1507 59.3988 47.7339C59.0943 47.1083 58.8978 46.4458 57.5296 45.7743C56.1613 45.1024 53.6753 44.0928 52.6861 43.4377C51.6969 42.7825 46.9316 39.2156 45.5918 38.2472C44.2519 37.2787 42.1278 35.8513 41.6594 35.1749C41.347 34.7239 41.2556 34.4253 41.3845 34.2781C40.9413 33.8255 40.535 33.692 40.1659 33.8766C39.6123 34.1538 39.3628 34.8451 39.4711 35.1562C39.5793 35.4672 39.9053 36.0269 41.0445 37.079C42.1837 38.1312 45.9019 40.8103 48.0005 42.57C50.0991 44.3297 52.7299 45.7148 54.2532 46.3618C55.7764 47.0087 57.4956 48.0047 58.0134 48.243C58.3592 48.4016 58.8695 48.7717 59.5445 49.3526Z" fill="#E8E6E4"/>
<path id="59" d="M40.166 33.8766C40.5354 33.6918 40.9418 33.8259 41.3852 34.2783C41.3595 34.3077 41.3424 34.3432 41.3344 34.3846L41.1251 34.3084C40.9793 34.2731 40.8181 34.2719 40.6424 34.3038C39.9852 34.4237 39.8083 35.2397 39.9793 35.9807C39.6662 35.5927 39.5333 35.3342 39.4714 35.1567C39.3626 34.8455 39.6122 34.1535 40.166 33.8766Z" fill="#727272"/>
<path id="58" d="M54.3062 45.2257C55.1654 45.5132 56.4341 45.7396 56.6093 45.3432L57.5294 45.7737C58.8977 46.4456 59.0942 47.1082 59.3986 47.7334C59.6016 48.1502 59.65 48.6899 59.5443 49.3521C59.0043 48.8872 58.5698 48.5578 58.2411 48.3628L56.0864 47.2337C55.6493 47.009 55.1796 46.7759 54.7151 46.5641L54.2534 46.3608C53.6472 46.1033 52.866 45.7292 52.0126 45.2608C52.9314 45.3108 53.5173 44.9614 54.3062 45.2257Z" fill="#DBD0D0"/>
<path id="57" d="M43.0081 31.5191C43.2312 31.1024 43.5489 30.4497 43.0063 30.6666C42.4637 30.8831 42.0521 30.9448 41.5454 30.7777C41.0387 30.6106 40.0349 30.6644 39.1213 31.6319C38.2078 32.5994 38.385 33.7671 38.5882 34.6276C38.7913 35.4881 38.4206 37.0138 38.3718 37.6643C38.3229 38.3149 38.8149 38.6663 39.023 38.3234C39.231 37.981 39.5648 35.8154 39.4709 35.1559C39.3775 34.4964 39.2621 33.0092 39.6663 32.4844C40.0706 31.9596 41.5489 31.7965 41.697 32.2325C41.8451 32.6689 42.286 33.3832 42.3062 33.1209C42.3264 32.8591 42.7851 31.9358 43.0081 31.5191Z" fill="#343434"/>
<path id="56" d="M35.1047 76.4763C33.8841 77.8112 32.1674 78.5413 31.579 78.7391C30.9906 78.9369 29.8684 78.3288 29.5764 77.0113C29.2844 75.6938 30.0476 74.1177 30.7673 73.3938C31.487 72.6699 32.7248 71.7272 33.8286 71.8621C34.9325 71.9971 36.0331 72.5271 36.3724 73.1865C36.7121 73.8464 36.3258 75.1413 35.1047 76.4763Z" fill="#6D5CCA"/>
<path id="55" d="M34.6813 76.0471C33.4606 77.3821 31.7086 78.1173 31.1202 78.3151C30.5318 78.5129 29.8688 78.3288 29.5764 77.0113C29.2844 75.6937 30.0476 74.1177 30.7673 73.3938C31.487 72.6699 32.7248 71.7272 33.8286 71.8621C34.9325 71.9971 35.4742 72.1201 35.813 72.7796C36.1527 73.4394 35.9019 74.7122 34.6813 76.0471Z" fill="#7B53E8"/>
<path id="54" d="M33.7026 72.7699C33.7739 72.5673 34.0446 72.5959 34.2384 72.5791C34.4323 72.5623 35.3074 72.8203 35.3737 73.1649C35.44 73.5095 35.0389 74.0364 34.6621 74.305C34.2854 74.5735 33.3316 74.8226 33.1887 75.107C33.0459 75.3915 32.3333 76.0181 32.0796 76.5159C31.8258 77.0132 31.3039 77.0125 30.7479 77.241C30.3295 77.4125 30.7661 77.9624 31.1409 78.3099C30.5317 78.5128 29.8688 78.3287 29.5764 77.0112C29.5459 76.8748 29.5273 76.7354 29.5185 76.5947L29.5935 76.5231L29.7394 76.4094C30.0939 76.1648 31.5555 75.8233 31.974 75.638C32.3924 75.4527 33.1452 74.4128 33.3335 74.177C33.5223 73.9417 33.6313 72.9725 33.7026 72.7699Z" fill="#9175F6"/>
<path id="53" d="M33.8291 71.862L34.1274 71.8943C34.3369 72.1793 34.359 72.6872 34.7466 72.9895C35.1114 73.2742 34.8976 74.0011 34.2433 74.1777C33.589 74.3543 33.3325 74.3976 33.1058 74.7827C32.8792 75.1678 32.3281 75.7092 32.1104 75.8547C31.9989 76.0376 31.9523 76.1929 31.9705 76.3207C32.0127 76.6195 31.7621 76.8197 31.3741 76.971C30.9861 77.1222 30.716 76.8444 30.6006 76.645C30.4852 76.4455 30.4616 76.5827 29.9258 76.735C29.7451 76.7863 29.6685 77.0038 29.6467 77.2729L29.5764 77.0116C29.2844 75.6941 30.0476 74.1181 30.7673 73.3942C31.4874 72.6698 32.7252 71.7275 33.8291 71.862Z" fill="#4334A5"/>
<path id="52" d="M53.4187 59.0133C53.6732 59.4593 53.6915 60.5519 52.9664 61.8427C52.2414 63.134 50.8704 64.5125 49.4526 64.9796C48.0348 65.4467 47.0523 63.5617 46.8614 62.6932C46.6704 61.8248 46.9069 60.208 47.9288 59.0743C48.9508 57.9406 50.0696 57.3934 51.2609 57.5422C52.4525 57.6905 53.1643 58.5672 53.4187 59.0133Z" fill="#6645BD"/>
<path id="51" d="M53.1422 58.6421C53.3967 59.0881 53.3885 60.144 52.6582 61.2936C51.9278 62.4432 50.3979 64.1189 48.9797 64.586C47.5619 65.0531 47.0537 63.5616 46.8627 62.6931C46.6718 61.8246 46.9082 60.2079 47.9302 59.0742C48.9521 57.9405 50.071 57.3933 51.2622 57.542C52.4534 57.6904 52.8877 58.1961 53.1422 58.6421Z" fill="#7857DD"/>
<path id="50" d="M51.2606 57.5418C51.5547 57.5787 51.8028 57.6371 52.0136 57.711C50.9926 58.0078 51.157 58.4414 51.5788 58.634C52.0443 58.8466 53.2502 59.3787 51.8231 60.356C51.5508 60.5426 51.2075 61.1572 50.7899 61.7092C50.5734 61.9956 50.1944 62.5178 49.6533 63.2759C49.1155 63.9006 48.747 63.5414 47.9809 63.4352C47.504 63.3692 47.4724 63.9034 48.0113 64.5762C47.3079 64.2896 47.0003 63.3255 46.8611 62.6924C46.6702 61.8239 46.9066 60.2072 47.9286 59.0735C48.9505 57.9402 50.0694 57.393 51.2606 57.5418Z" fill="#4D34B6"/>
<path id="49" d="M49.6743 57.7639L49.972 57.7175L50.2245 57.7185C50.8111 57.8164 51.0538 58.7508 51.3664 58.7723C51.6791 58.7939 52.0977 59.0254 52.3391 59.3538C52.5806 59.6821 51.7105 60.2497 51.416 60.2854L50.7497 60.3067C50.3838 60.3244 50.003 60.3793 49.9194 60.5738C49.773 60.9138 49.4851 61.8098 49.6148 62.1949C49.7444 62.58 49.7556 63.1213 49.3455 63.4442C48.9354 63.767 47.8632 63.2267 47.6684 63.0709C47.5169 62.9499 47.0372 62.383 46.899 61.6976L46.8619 61.3637C46.9876 60.6034 47.3182 59.7526 47.9293 59.0746C48.4833 58.4588 49.0667 58.016 49.6743 57.7639Z" fill="#311B8E"/>
<path id="48" d="M25.6132 72.0702C25.1221 72.5275 24.5179 73.1977 24.7161 73.4335C24.9143 73.6693 27.3216 75.3692 28.1356 75.7011C28.9497 76.033 29.6822 76.2163 30.4877 75.9629C31.2932 75.7096 32.4399 75.2603 32.9509 74.2898C33.4623 73.3193 33.3094 71.9075 32.8931 71.1118C32.4767 70.3157 30.9663 67.9096 30.6893 67.5515C30.4118 67.1934 29.8453 66.5742 29.9678 66.2062C29.6692 66.0246 29.4596 66.0893 29.2915 66.277C29.1234 66.4648 28.1451 68.5781 27.784 69.0662C27.423 69.5539 26.1044 71.6129 25.6132 72.0702Z" fill="#4E2FBB"/>
<path id="47" d="M25.6132 72.0702C25.1221 72.5275 24.5179 73.1977 24.7161 73.4335C24.9143 73.6693 27.18 75.142 27.9941 75.4743C28.8081 75.8062 29.5393 76.0025 30.3448 75.7491C31.1502 75.4958 32.297 75.0465 32.808 74.076C33.3194 73.1055 33.1665 71.6937 32.7501 70.898C32.3338 70.1023 30.9663 67.9096 30.6888 67.5515C30.4114 67.1934 29.8448 66.5742 29.9673 66.2062C29.6688 66.0246 29.4591 66.0893 29.2911 66.2771C29.123 66.4648 28.1446 68.5781 27.7836 69.0662C27.423 69.5539 26.1044 71.6129 25.6132 72.0702Z" fill="#7B4EE4"/>
<path id="46" d="M28.9725 66.8438L30.8239 69.6239C31.0319 69.9457 31.1949 70.2054 31.3138 70.4034L31.4174 70.5804C31.9063 71.4413 32.5719 72.7856 31.9701 73.8749C31.3684 74.9641 30.2734 75.1845 28.8553 74.8608C27.9976 74.6649 26.7534 73.9018 25.1231 72.5712C25.2742 72.3965 25.4494 72.2215 25.6119 72.0701C25.7758 71.9178 26.0312 71.5873 26.3128 71.1965L27.7827 69.0661C28.039 68.7203 28.6048 67.5584 28.9725 66.8438Z" fill="#8754ED"/>
<path id="45" d="M29.7443 73.9599C29.5786 74.2568 29.7706 74.9283 30.0004 75.1372C30.2303 75.3462 31.0305 75.1681 31.0663 74.7369C31.102 74.3058 30.8065 73.829 30.4372 73.6898C30.0671 73.551 29.9094 73.6629 29.7443 73.9599Z" fill="#483C9D"/>
<path id="44" d="M31.2135 72.7223C31.3107 73.0486 31.923 73.3763 32.2313 73.355C32.5396 73.3337 32.9681 72.6293 32.6858 72.3039C32.403 71.9784 31.8578 71.8613 31.5017 72.0322C31.1457 72.2031 31.1162 72.396 31.2135 72.7223Z" fill="#483C9D"/>
<path id="43" d="M28.9731 66.8438L29.8528 68.1684L27.7661 74.4216C27.0417 74.0346 26.1611 73.4176 25.1242 72.5712C25.2753 72.3965 25.4505 72.2215 25.613 72.0701C25.7769 71.9178 26.0323 71.5873 26.3138 71.1965L27.7838 69.0661C28.0397 68.7203 28.6054 67.5585 28.9731 66.8438Z" fill="#9D6CFA"/>
<path id="42" d="M30.0005 74.0551C29.9019 74.1383 29.958 74.5981 30.2296 75.223C30.5012 75.8479 30.9532 76.5767 31.0502 76.6694C31.1471 76.7621 31.6567 76.5551 31.6621 76.3304C31.6675 76.1057 30.6541 74.2239 30.5328 74.0206C30.4115 73.8173 30.0986 73.9716 30.0005 74.0551Z" fill="#7A00FE"/>
<path id="41" d="M31.8179 72.2038C31.514 72.2325 31.3124 72.4826 31.4432 72.6914C31.5744 72.9002 33.2727 73.6831 33.4272 73.7972C33.5816 73.9113 34.065 74.0281 34.3195 73.7241C34.574 73.42 34.5507 73.2002 34.2812 73.1389C34.0117 73.0775 32.5649 72.3785 32.225 72.2662C31.8852 72.1538 32.1219 72.175 31.8179 72.2038Z" fill="#7A00FE"/>
<path id="40" d="M50.3081 61.0145C51.0391 60.0719 50.3174 57.9278 49.4028 56.6347C48.4881 55.3416 46.0216 52.9145 45.7372 52.7735C45.4528 52.6326 45.3373 52.0619 45.0294 52.2361C44.7216 52.4104 41.9485 56.6289 41.4733 57.3809C40.9981 58.1334 40.5572 58.5073 40.4788 58.9924C40.4003 59.4775 41.847 60.5124 42.7319 60.97C43.6169 61.4276 45.4302 62.2837 46.8874 62.2237C48.3454 62.1633 49.577 61.9566 50.3081 61.0145Z" fill="#784CDF"/>
<path id="39" d="M44.3741 53.0724C44.6688 53.2139 44.9096 53.3531 45.0963 53.4895C46.0803 54.2048 48.0331 56.1412 49.03 57.7927C50.0269 59.4442 49.5641 60.7331 48.6641 61.1719C47.7638 61.6107 45.9526 61.4898 43.8721 60.5486C42.3214 59.847 41.2687 58.8222 40.8098 58.3096L41.2322 57.7404L43.019 55.0315C43.4125 54.4444 43.8193 53.8466 44.1655 53.3545L44.3741 53.0724Z" fill="#6D45D6"/>
<path id="38" d="M47.1604 60.3276C46.9948 60.6246 47.2498 61.2086 47.4792 61.4176C47.709 61.6265 48.5019 61.4424 48.4523 61.0349C48.4027 60.6275 48.1877 60.1711 47.818 60.0318C47.4487 59.8931 47.3261 60.0307 47.1604 60.3276Z" fill="#302387"/>
<path id="37" d="M48.3206 59.0116C48.4455 59.3281 48.9494 59.4725 49.2995 59.3671C49.6496 59.2613 49.8287 58.5307 49.4836 58.3128C49.1385 58.095 48.8758 58.0987 48.5363 58.3009C48.1959 58.5022 48.1952 58.6946 48.3206 59.0116Z" fill="#302387"/>
<path id="36" d="M44.3746 53.0724C44.6692 53.2139 44.9101 53.3531 45.0967 53.4895L45.5221 53.8246C45.5996 53.8897 45.6803 53.9587 45.7634 54.0317L43.0047 60.0971C41.925 59.4587 41.1772 58.7199 40.8098 58.3096L41.2322 57.7404L43.019 55.0315L44.1655 53.3545L44.3746 53.0724Z" fill="#895BE9"/>
<path id="35" d="M44.873 53.3414L42.2312 56.8353C41.8994 57.2648 41.648 57.5826 41.4774 57.7888C41.2059 58.1171 41.0957 58.1394 41.1467 57.856L41.231 57.7406L43.0179 55.0317L44.1643 53.3547L44.3734 53.0731C44.5621 53.1633 44.7287 53.2529 44.873 53.3414Z" fill="#AD90F5"/>
<path id="34" d="M46.7734 53.8063L46.1376 53.1021L46.8847 53.8176C47.7448 54.6714 48.854 55.8573 49.4033 56.6341C50.318 57.9272 51.0397 60.0712 50.3086 61.0138C49.5776 61.9563 48.346 62.1626 46.8888 62.2226C45.4316 62.2825 43.6183 61.4264 42.7333 60.9688C41.962 60.5698 40.7639 59.7324 40.521 59.2029C41.6632 60.1238 43.7484 61.2152 45.0369 61.5233C46.4309 61.8563 47.6767 61.8902 48.4923 61.6495C49.3079 61.4088 49.7143 60.8539 49.9525 60.1129C50.1906 59.3719 49.7895 58.4366 49.0856 56.9316C48.7441 56.202 47.9736 55.1603 46.7734 53.8063Z" fill="#4E34AF"/>
<path id="33" d="M47.5161 60.2748C47.2838 60.367 47.1218 60.6069 47.5625 61.3718C48.0031 62.1363 48.6006 63.4474 49.0803 63.1922C49.56 62.9374 49.0902 62.3326 48.9885 62.118C48.8868 61.9033 48.184 60.6313 48.0595 60.4389C47.9346 60.2469 47.7484 60.1825 47.5161 60.2748Z" fill="#9761E9"/>
<path id="32" d="M48.9884 58.3363C48.626 58.4102 48.3447 58.6816 48.4791 58.9489C48.6135 59.2167 48.983 59.1273 49.5791 59.2593C50.1752 59.3914 50.9443 59.7923 51.0719 59.9265C51.1995 60.0607 51.9613 59.8185 52.0051 59.5148C52.0488 59.2111 51.2001 59.005 50.7957 58.8571C50.3912 58.7092 49.3508 58.2623 48.9884 58.3363Z" fill="#9761E9"/>
<path id="31" d="M68.9258 66.3546C68.7261 65.8017 68.7826 63.398 68.6447 61.9021C68.5069 60.4061 69.0399 51.5666 69.3144 49.932C69.5885 48.2975 69.7776 47.732 70.2897 47.1399C70.8019 46.5482 72.3208 44.8036 72.2842 44.1736C72.2471 43.5432 71.9771 41.9753 72.3466 41.1354C72.7161 40.2954 78.9877 32.3518 80.0992 30.9478C81.2108 29.5443 84.426 25.4161 84.9435 24.8506C85.4609 24.2852 86.0454 24.0897 87.0833 24.314C88.1211 24.5382 91.1097 25.6402 91.4884 25.7482C91.8672 25.8562 92.7731 25.2231 92.856 25.2916C92.9115 25.3373 94.0762 26.6767 96.3507 29.3094L92.5808 35.8878L79.7532 54.9511C72.6682 62.9216 69.0589 66.723 68.9258 66.3546Z" fill="#DDDDE1"/>
<path id="30" d="M68.9257 66.3549C68.726 65.802 69.1072 63.5925 68.9698 62.0961C68.832 60.6002 69.365 51.7606 69.6395 50.1261C69.9135 48.4916 70.1026 47.9261 70.6148 47.3339C71.127 46.7422 72.6459 44.9976 72.6093 44.3676C72.5727 43.7376 72.3021 42.1694 72.6716 41.3294C73.0411 40.4895 79.3128 32.5459 80.4243 31.1419C81.5358 29.7379 84.6367 25.7126 85.1537 25.1467C85.6711 24.5812 86.2556 24.3858 87.2935 24.61C88.3313 24.8343 91.3199 25.9363 91.6987 26.0443C92.0775 26.1523 92.773 25.223 92.8559 25.2915C92.9115 25.3371 94.0761 26.6766 96.3507 29.3092L92.5807 35.8876L79.7532 54.951C72.6681 62.9218 69.0588 66.7233 68.9257 66.3549Z" fill="#B9BDC1"/>
<path id="29" d="M91.6986 26.0441C92.0774 26.1521 92.7729 25.2228 92.8558 25.2913L96.3506 29.309L92.9437 35.2516L91.1788 29.6361C90.7249 28.1948 89.7653 26.6137 88.2998 24.8923L89.9729 25.45C90.8032 25.7362 91.5253 25.995 91.6986 26.0441Z" fill="#CCC8C8"/>
<path id="28" d="M79.282 1.4074C80.2212 0.933821 81.8745 0.860565 83.0594 2.57506C84.2442 4.28956 84.5952 6.16124 84.1847 7.73292C83.7742 9.30505 82.1579 11.2831 82.1029 11.6775C82.0482 12.072 83.6939 13.5694 84.2675 14.073C84.841 14.5766 84.8732 15.4751 85.3735 15.7242C85.8739 15.9733 87.2717 15.2233 89.641 15.3816C92.0102 15.54 93.322 16.7447 93.9601 18.0504C94.5983 19.3562 93.9338 21.9566 93.6338 23.6988C93.3339 25.4411 94.455 26.1422 95.3927 26.9792C96.3303 27.8163 96.7045 28.4138 96.4667 28.9826C96.2289 29.5518 96.0037 29.3732 95.8812 29.3015C95.7587 29.2293 94.7183 27.9477 94.3068 27.3912C93.8949 26.8347 93.2179 25.9765 93.0701 25.6917C92.9228 25.4065 92.8694 25.1903 92.746 24.7219C92.6226 24.2534 92.8839 22.354 93.1362 21.5535C93.3885 20.7526 93.4285 18.9577 92.7149 17.5809C92.0013 16.2041 89.9802 16.224 89.0637 16.1199C88.1472 16.0157 86.1496 16.6276 85.3912 16.5699C84.6328 16.5123 83.2924 15.1734 82.8623 14.7141C82.4321 14.2548 80.7581 12.8048 80.3681 12.4234C79.9781 12.042 79.2458 11.2593 79.0728 10.9091C78.8999 10.559 78.9104 9.56072 78.8862 9.086C78.862 8.61128 77.8901 7.64649 77.2909 5.71416C76.6926 3.78269 78.3428 1.88099 79.282 1.4074ZM79.7094 2.11685C78.7973 2.58018 78.0852 4.01371 78.1386 5.25015C78.1919 6.48659 79.2233 7.79171 79.802 8.44586C80.3807 9.10002 80.2161 9.86513 80.3341 10.332C80.4521 10.7989 81.0224 11.3835 81.1993 11.2505C81.3762 11.1175 81.761 10.4823 82.2 9.79226C82.639 9.10175 83.1581 8.03569 83.4611 6.74603C83.7642 5.45683 83.1359 3.98388 82.5197 3.11217C81.9044 2.24043 80.6214 1.65351 79.7094 2.11685Z" fill="#2C2F28"/>
<path id="27" d="M87.9313 25.2274L89.3261 25.6547C90.996 26.1392 92.1812 26.2233 93.1646 25.7863L93.2559 25.7392L93.9081 26.4872C93.7925 26.5503 93.6704 26.606 93.5474 26.6609C92.445 27.1507 91.2346 27.1283 89.6688 26.7367L88.566 26.4228L88.0815 26.2698C86.6957 25.8301 86.5031 25.8581 85.7682 26.5659L85.2411 27.1353L84.556 27.9288C83.1261 29.6111 80.8288 32.4433 79.1095 34.7162L77.3772 37.0579L74.7247 40.791C74.7006 40.8284 74.682 40.858 74.6694 40.879C74.5375 41.1032 74.3206 43.8408 74.1998 44.5593C74.0718 45.3184 73.7095 46.1062 73.1687 46.9162C72.9678 47.2173 72.7489 47.5113 72.5143 47.8L71.9971 48.4026L71.4974 48.9384L71.4747 48.9781L71.4109 49.1505L71.3467 49.4392C71.228 50.083 71.103 51.3774 70.9479 53.6661L70.8162 55.7247C70.6901 57.8032 70.6357 59.8347 70.653 61.8188C70.8115 61.7087 75.6725 56.2015 77.6669 54.0568C78.3658 53.3054 77.806 52.5469 76.978 52.9857C76.1499 53.4245 75.426 53.5178 75.0804 53.025C74.3832 52.031 74.156 50.6989 75.168 49.0905C75.4854 48.5863 77.1156 46.5573 76.6998 44.5146C76.2835 42.4718 76.321 41.3341 76.8903 40.453C78.0068 38.725 82.3589 31.8792 85.9929 28.2837C86.9204 27.3658 87.4362 27.2441 88.6637 27.5013C90.7899 27.9469 90.538 33.9879 91.9748 32.7799C93.5058 31.493 95.0116 29.4866 95.6204 28.9505C96.0665 28.5577 96.8636 29.5105 98.0108 31.8085C79.8148 53.5369 70.7236 64.5384 70.7362 64.8131L70.142 65.4078C70.0524 65.4952 69.968 65.577 69.8883 65.6524C69.8467 65.5875 69.8226 65.5126 69.8179 65.4318C69.647 62.2976 69.6644 59.0421 69.8697 55.6653L70.1129 52.0131L70.1981 51.0058C70.3394 49.4967 70.4805 48.8035 70.6912 48.4439L70.8194 48.274L71.439 47.5979C71.7877 47.1997 72.1043 46.7961 72.3807 46.3822C72.8529 45.675 73.1616 45.0033 73.2633 44.3985L73.5187 42.1389C73.617 41.34 73.7326 40.5944 73.8522 40.3907L74.1666 39.9165L75.6241 37.8554C76.239 36.9997 76.946 36.0275 77.6358 35.097L79.1574 33.0861L80.4439 31.4467C82.4804 28.8844 84.5662 26.3992 85.1111 25.8744C86.0309 24.9908 86.5703 24.8438 87.9313 25.2274Z" fill="#3B3B3B"/>
<path id="26" d="M4.41909 93.2879C4.19471 93.2507 3.55848 94.5289 5.13285 97.4603C6.70767 100.392 8.63162 100.997 9.90885 101.652C11.1861 102.308 15.7191 103.318 19.0961 102.697C22.4731 102.076 24.1093 101.386 24.6864 101.309C25.2635 101.231 26.5815 101.022 26.9202 100.728C27.2589 100.434 28.1109 100.377 28.6271 100.354C29.1434 100.33 30.122 99.6418 30.3575 99.6242C30.593 99.6061 31.152 99.6306 32.1141 99.1071C33.0757 98.5836 37.3559 96.2538 37.9593 95.9253C38.5627 95.5969 38.287 94.94 37.9691 94.4378C37.6512 93.936 36.8383 93.1604 36.1173 93.0765C35.3958 92.9931 24.2899 98.0863 20.9158 98.9269C17.5417 99.7675 13.6796 100.568 12.1251 100.255C10.5706 99.942 9.69762 99.3852 8.97988 98.883C8.26214 98.3808 7.11226 97.5406 6.46547 96.3992C5.81868 95.2578 4.64346 93.3252 4.41909 93.2879Z" fill="#E2E2E2"/>
<path id="25" d="M4.738 93.6231C5.19287 94.2333 5.97882 95.539 6.46501 96.3982C7.01927 97.3765 7.94335 98.1335 8.64811 98.6464L8.97943 98.8824C9.69718 99.3851 10.5697 99.9419 12.1246 100.255C13.6791 100.568 17.5408 99.767 20.9154 98.9264C24.2899 98.0858 35.3958 92.9925 36.1168 93.076C36.8383 93.1594 37.6507 93.935 37.9686 94.4372C38.2511 94.8833 38.5005 95.452 38.1286 95.8036L37.9589 95.9248L32.1137 99.1066C31.152 99.63 30.5926 99.6055 30.3571 99.6236C30.1216 99.6417 29.1429 100.33 28.6267 100.353C28.1964 100.373 27.533 100.415 27.1279 100.599L26.9198 100.727C26.6295 100.979 25.6197 101.169 24.9736 101.267L24.686 101.309C24.1089 101.386 22.4726 102.076 19.0956 102.697C17.9975 102.899 16.7777 102.929 15.5865 102.854C16.0233 102.772 16.4489 102.677 16.8403 102.561L18.2556 102.156C19.1283 101.926 19.0177 102.038 19.4423 102.105C20.0212 102.197 20.5219 101.622 21.4922 101.262C22.4625 100.903 22.2861 101.49 23.1394 101.348C23.8709 101.226 24.1866 100.864 24.4627 100.798L24.5992 100.792C24.9183 100.85 25.0743 100.375 25.3163 99.841C25.5582 99.307 26.6284 99.9829 27.2377 99.8976C27.847 99.8127 27.2625 98.9056 28.0456 99.0421C28.8286 99.1781 29.3929 98.7628 29.5086 98.12C29.6242 97.4772 31.1096 98.0904 31.9799 98.0238C32.8507 97.9572 32.4445 97.57 32.427 96.8688C32.4094 96.1675 33.2666 96.9713 33.9629 96.9441C34.6592 96.9169 34.588 96.7282 34.505 96.2732C34.422 95.8182 35.2945 96.2614 35.9898 96.4024C36.6852 96.543 37.8621 95.7543 37.4944 94.6972C37.1267 93.6401 36.647 93.3989 35.729 93.7555C34.8109 94.1117 29.8196 96.2634 26.8178 97.5132C23.8159 98.763 20.4853 99.9431 17.017 100.526C15.1962 100.833 13.5549 101.006 12.2745 100.831C11.1158 100.673 10.294 100.106 10.1384 99.9836C9.81083 99.7264 9.18026 99.1172 8.10208 98.3987C7.10683 97.7352 5.17097 95.0217 4.78124 93.9268L4.71583 93.6945L4.738 93.6231Z" fill="#B7B7B6"/>
<path id="24" d="M37.9689 94.4368C38.2513 94.8828 38.5008 95.4516 38.1289 95.8032L37.9591 95.9243L32.1139 99.1061C31.1523 99.6296 30.5929 99.6051 30.3574 99.6232C30.1219 99.6413 29.1432 100.329 28.627 100.353C28.3106 100.367 27.8681 100.394 27.495 100.48C27.644 100.365 27.7555 100.27 27.8988 100.196L28.1461 100.101C28.5139 100.001 29.1866 99.6594 29.6367 99.4794L29.9247 99.3804C30.3073 99.287 30.9159 98.9517 31.1073 98.9287C31.2987 98.9057 31.9419 98.445 32.3188 98.4086C32.6958 98.3722 33.3384 97.9075 33.3343 97.6361C33.3303 97.3647 34.8113 97.3442 34.7228 97.2808C34.6338 97.2174 34.644 97.018 34.891 96.8851C35.138 96.7521 36.0138 96.6482 36.4025 96.4647L36.8953 96.1871C37.2842 95.9374 37.7174 95.6143 37.8056 95.442C37.8926 95.2725 37.9198 94.8798 37.8881 94.2644L37.8963 94.3299L37.9689 94.4368Z" fill="#727272"/>
<path id="23" d="M111.518 41.3572C110.632 39.7058 109.293 39.0352 108.906 38.9386C108.519 38.842 108.121 37.7202 108.207 36.8734C108.294 36.0266 107.536 35.3334 106.536 34.9353C105.535 34.5377 95.399 35.6111 94.7186 36.2179C94.0383 36.8247 80.3375 51.7261 78.8476 53.3616C77.3577 54.997 73.4628 59.456 72.61 60.3796C71.7572 61.3031 68.8639 64.0493 68.208 64.5999C67.5521 65.1505 56.5291 73.3843 55.5802 73.9597C54.6312 74.5347 37.7361 84.6521 30.0484 88.6689C22.3607 92.6858 9.90784 98.6353 9.52486 99.0311C9.14188 99.4269 10.5068 100.657 12.3639 100.785C14.221 100.913 18.4317 100.645 25.0839 98.0079C31.736 95.3716 36.0199 93.3427 36.4387 93.326C36.8575 93.3093 37.5544 93.7562 37.7664 94.2465C37.9783 94.7373 38.0213 95.202 38.2428 95.1356C38.4644 95.0692 39.3254 94.6468 39.4916 94.3016C39.6579 93.9565 40.3513 94.2362 41.5895 93.6871C42.8276 93.1379 43.9283 92.6745 45.2847 91.9365C46.6408 91.198 60.1852 83.7857 61.9356 82.8327C63.6861 81.8797 64.8509 80.2052 65.418 78.5924C65.9848 76.9796 66.7428 76.2173 67.324 76.0171C67.9053 75.8168 68.3719 76.7049 68.85 76.4984C69.3282 76.292 69.6253 76.1584 69.8212 76.4076C70.0172 76.6569 71.0845 77.3396 72.1433 76.9736C73.2022 76.6077 75.4324 75.4853 78.6095 73.7554C81.7867 72.026 94.2918 65.2187 98.2997 63.0365C102.308 60.8548 102.834 58.7436 103.212 58.2303C103.589 57.7171 104.769 58.0496 105.001 57.7342C105.233 57.4187 105.574 56.6213 106.272 56.5645C106.97 56.5078 107.764 55.9278 107.795 55.5229C107.826 55.118 108.349 54.8453 108.396 54.9705C108.442 55.0956 109.42 54.8677 109.574 53.9723C109.727 53.0769 109.711 52.7263 110.234 52.6572C110.757 52.588 110.906 51.8775 110.762 51.3658C110.619 50.8541 111.356 51.2488 111.486 50.9719C111.573 50.7871 111.67 50.3927 111.776 49.7887C112.388 48.1959 112.707 46.9129 112.734 45.9401C112.774 44.4816 112.403 43.0086 111.518 41.3572Z" fill="#DFDFDF"/>
<path id="22" d="M94.7187 36.2182C95.399 35.6113 105.535 34.5379 106.536 34.9355L106.835 35.0666C105.491 36.3401 102.342 41.1801 101.029 41.5446C99.5132 41.9651 99.1992 40.8925 98.5953 40.7965C97.991 40.7 96.9201 41.3168 95.2927 43.0845C94.5885 43.6236 92.0718 43.8282 87.7416 43.6976L94.4339 36.5044C94.5778 36.3545 94.6751 36.2571 94.7187 36.2182Z" fill="#E2E2E2"/>
<path id="21" d="M39.3989 92.4767L40.017 92.1617L40.4639 91.9517C40.6516 91.8667 40.7821 91.8255 40.8402 91.8939C40.9756 92.0534 41.7368 92.4697 42.353 92.3775L42.789 92.3003L43.5931 92.1324C44.3674 91.9596 45.3606 91.7085 46.2576 91.4048L45.2852 91.9363C43.9291 92.6747 42.8281 93.1377 41.5899 93.6869C40.4892 94.1749 39.8192 94.008 39.5672 94.2074L39.492 94.3014C39.3254 94.6466 38.4648 95.069 38.2433 95.1354C38.0758 95.1854 38.0106 94.9334 37.8976 94.5956C38.2468 94.4684 38.528 94.2377 38.7416 93.9027C39.1079 93.3281 38.8783 92.7278 39.3989 92.4767Z" fill="#9C9C9C"/>
<path id="20" d="M41.2943 92.6181L41.7123 92.7334C42.1405 92.8461 42.7546 92.9579 43.4527 92.7459L43.9959 92.5938C43.176 92.9944 42.4137 93.3215 41.5904 93.6868C40.4897 94.1748 39.8197 94.008 39.5677 94.2073L39.4926 94.3013C39.3259 94.6465 38.4654 95.0689 38.2438 95.1353C38.1163 95.1737 38.0477 95.0359 37.9725 94.8191L38.5028 94.5636C38.6901 94.4669 38.8661 94.3608 38.9612 94.2509C39.2207 93.9525 39.3707 93.3985 39.8349 93.1048C40.2992 92.8116 40.9263 92.5312 41.2943 92.6181Z" fill="#404040"/>
<path id="19" d="M110.032 44.9071C108.76 47.5999 106.404 50.6196 105.61 52.7883C104.85 54.863 107.281 53.7782 109.474 52.0353L109.771 51.7938C110.372 51.2946 110.999 50.8303 111.653 50.401C111.596 50.6698 111.539 50.8599 111.487 50.9725C111.356 51.2499 110.619 50.8548 110.763 51.3664C110.907 51.8781 110.757 52.5886 110.234 52.6578C109.712 52.7269 109.727 53.0776 109.574 53.9729C109.436 54.7788 108.63 55.0438 108.436 54.9975L108.396 54.9711C108.356 54.8641 107.966 55.049 107.836 55.359L107.795 55.5235C107.764 55.9284 106.97 56.5084 106.272 56.5651C105.574 56.6219 105.233 57.4189 105.002 57.7348C104.77 58.0507 103.59 57.7182 103.212 58.231C102.854 58.7172 102.363 60.6372 98.9047 62.6935L98.3005 63.0371L77.8939 74.1443C75.0967 75.6539 73.1213 76.6363 72.1441 76.9742C71.203 77.2998 70.2549 76.7963 69.9183 76.5054L69.822 76.4082C69.6261 76.1589 69.3294 76.2926 68.8509 76.499C68.3723 76.7055 67.9061 75.8174 67.3248 76.0177C66.8081 76.1958 66.1518 76.8179 65.6142 78.0863L65.4188 78.593C65.2505 79.071 65.0301 79.5547 64.7572 80.0235C64.8572 78.3135 65.0794 77.2049 65.4202 76.6946C66.0551 75.7439 68.2813 75.2018 69.4379 74.5143L70.5102 73.8263C72.3728 72.6015 75.6749 70.3828 76.9413 70.0103C78.4107 69.5778 82.012 67.9442 84.3724 66.4166L84.8935 66.0666C87.2079 64.4469 99.8545 54.709 100.49 54.5232C101.125 54.3373 101.25 58.2146 102.279 57.608C103.307 57.0015 103.46 52.9988 103.519 51.9212C103.525 51.802 104.396 49.07 102.743 50.728C101.1 52.3763 92.9715 58.3473 99.2527 50.8807C105.534 43.414 106.351 42.2049 107.47 40.6768L107.699 40.3574C108.997 38.5012 111.305 42.2143 110.032 44.9071Z" fill="#D4D4D4"/>
<path id="18" d="M109.929 52.7617C109.709 52.9363 109.689 53.3015 109.575 53.9725C109.437 54.7783 108.631 55.0433 108.437 54.9971L108.397 54.9706C108.357 54.8636 107.966 55.0485 107.836 55.3585L107.796 55.523C107.765 55.9279 106.971 56.5079 106.273 56.5646C105.575 56.6214 105.234 57.4184 105.002 57.7343C104.771 58.0502 103.59 57.7177 103.213 58.2305L103.076 58.4593C102.698 59.1703 101.957 60.8785 98.9049 62.6926L98.3006 63.0362L77.894 74.1435C75.0969 75.653 73.1215 76.6354 72.1443 76.9733C71.2031 77.2989 70.255 76.7955 69.9184 76.5045L69.8222 76.4073C69.6262 76.1581 69.3295 76.2917 68.851 76.4981C68.6194 76.598 68.3908 76.4414 68.15 76.2763L70.6548 74.6422C72.5974 73.3924 74.0639 72.4948 75.0541 71.9494C77.1999 70.768 82.7325 68.4311 84.3392 67.5041C85.9458 66.5775 87.57 66.5942 87.9946 66.4069C88.4191 66.2196 88.6742 64.8161 89.9163 64.8872C91.0806 64.954 90.6065 66.3367 91.5302 65.0844L91.7346 64.7976C92.9336 63.0684 93.586 63.794 93.818 63.6633C94.05 63.5326 94.8079 62.9815 94.7464 62.405C94.6849 61.8286 94.2773 61.7224 95.1961 62.013C96.1149 62.3036 97.647 62.244 97.6619 61.5708C97.6768 60.898 96.8918 59.8513 98.2089 59.9532C99.5261 60.0555 100.22 60.4109 100.673 60.16C101.127 59.9092 100.803 59.9211 100.52 59.2618C100.236 58.6024 100.626 57.6844 101.285 57.6691C101.454 57.6652 101.632 57.6158 101.802 57.5375C101.934 57.6788 102.091 57.7168 102.278 57.6067C102.599 57.4173 102.834 56.8973 103.008 56.2388C103.406 56.0806 104.188 56.0748 104.756 56.0155C105.559 55.9322 105.479 54.5373 106.613 55.0045C107.748 55.4718 107.981 54.7318 107.994 53.4781C108.001 52.8105 108.646 52.5716 109.929 52.7617Z" fill="#B0B0B0"/>
<path id="17" d="M68.6404 75.441C69.3363 75.7015 74.3216 73.117 75.3882 72.8407C76.4547 72.5644 76.9469 73.3304 77.1953 72.9165C77.4433 72.503 76.9434 72.087 78.1292 71.7775L79.4992 71.4143C80.0306 71.2666 80.4463 71.1346 80.6984 71.0095L81.0187 70.8237C81.9262 70.2724 84.3102 68.7471 85.9089 68.1062L86.291 67.9654C88.1057 67.3642 92.7387 64.4968 94.2716 64.1898C94.8378 64.0764 95.0888 64.3423 95.0685 64.7991L77.8949 74.1434C75.0978 75.653 73.1224 76.6354 72.1452 76.9733C71.204 77.2989 70.2559 76.7954 69.9193 76.5045L69.8231 76.4073C69.6271 76.158 69.3304 76.2916 68.8519 76.4981C68.3733 76.7045 67.9071 75.8165 67.3258 76.0167C66.8091 76.1948 66.1528 76.817 65.6152 78.0854L65.4199 78.592C65.3592 78.7648 65.2918 78.9382 65.2174 79.1114C65.3084 77.9246 65.6667 76.5996 65.9267 76.358C66.2807 76.0271 67.9444 75.1806 68.6404 75.441Z" fill="#828282"/>
<path id="16" d="M103.139 58.3482L102.79 58.9988C102.309 59.8584 101.346 61.242 98.9051 62.693L98.3008 63.0367L77.8942 74.1439C75.0971 75.6535 73.1217 76.6359 72.1445 76.9738C71.6673 77.1386 71.1883 77.0906 70.7881 76.9653C71.3585 76.6997 72.0353 76.2915 72.447 75.8515C73.1684 75.0801 74.6649 73.9669 75.642 73.7551L76.8699 73.5149C77.4538 73.3862 77.9066 73.2217 77.8385 72.9165C77.7249 72.4079 77.8188 72.1187 78.879 71.9929L79.7849 71.8881C80.3811 71.8103 80.9495 71.6968 81.4205 71.4307L81.7541 71.2006C82.4844 70.5882 82.797 71.0924 83.4914 70.4252L83.9145 70.0062C84.3542 69.5496 84.5787 69.2089 84.3163 69.0333C83.979 68.8072 85.3308 68.9098 85.5504 68.7513C85.7387 68.6157 85.6667 68.3728 85.9457 68.382L86.1174 68.4092C86.5991 68.5301 87.3521 68.117 86.9913 67.9337C86.7109 67.7913 86.9179 67.8005 87.5148 67.6883L88.1195 67.5562C89.0881 67.3134 88.2709 67.8422 89.5375 67.1383L91.9859 65.7725C92.5208 65.4654 92.8753 65.2378 93.0204 65.0673L94.1641 63.6722C94.6773 63.2101 95.0294 63.0189 95.2204 63.097L95.8632 63.3886C96.173 63.518 96.4524 63.5983 96.3887 63.4039L96.1499 62.8348C96.0848 62.6427 96.0779 62.4797 96.2587 62.4414L96.4316 62.4377C97.0679 62.5055 98.0682 61.9289 98.5002 61.7114C98.9323 61.4939 99.0908 61.8638 99.3985 61.4167C99.6676 61.0258 99.7144 60.4661 100.195 60.3048L100.43 60.2616C101.136 60.2203 102.347 59.4434 102.506 58.9267C102.593 58.644 102.757 58.4872 103.139 58.3482Z" fill="#404040"/>
<path id="15" d="M61.4226 77.604C64.1855 76.1214 64.6332 77.0422 64.799 77.5322C64.8601 77.7128 65.1747 78.7165 65.4341 78.5406L65.4184 78.5926C64.8517 80.2054 63.6869 81.8799 61.936 82.8329L45.2851 91.9367C44.5334 92.3458 43.8597 92.6706 43.1982 92.9727L42.6815 92.4414C42.644 92.4063 42.6134 92.3795 42.5893 92.3602L41.9234 91.8988C41.543 91.6245 41.1051 91.2593 40.8278 90.8068C40.4032 90.1139 41.0856 89.4752 43.1955 88.0409L44.1882 87.3751C47.0723 85.4557 58.6596 79.0865 61.4226 77.604ZM56.8462 73.0713C54.3581 75.1383 49.8667 78.1909 44.3791 81.7681L42.9459 82.6793C34.4542 87.9586 20.009 95.0588 17.1748 96.6169C14.3044 98.195 15.234 99.0023 17.6722 98.5565C20.1104 98.1111 22.1603 97.4533 25.0183 96.4558L26.2803 96.0003C29.616 94.7695 35.0693 92.8341 35.6739 92.7695C36.2728 92.7061 36.3509 92.9496 36.7855 93.3913C36.6598 93.3456 36.541 93.3221 36.4386 93.3262C36.0198 93.3424 31.7364 95.3718 25.0838 98.0081C18.4316 100.644 14.2209 100.913 12.3638 100.785C10.5067 100.657 9.14181 99.427 9.52479 99.0313C9.89702 98.6466 21.6961 93.0034 29.4148 88.999L31.1514 88.0849C39.2392 83.7522 54.6743 74.5089 55.5801 73.9599L56.8462 73.0713ZM70.1522 62.8064C70.3888 63.5599 70.4635 64.1475 70.3756 64.5694C70.138 65.7103 68.569 66.9765 67.999 67.4644C67.4286 67.9524 68.1323 66.2781 67.8043 65.5812C67.7353 65.4348 67.3229 65.5148 66.7107 65.746L68.2084 64.5992L69.2758 63.63L70.1522 62.8064Z" fill="#EDEDED"/>
<path id="14" d="M15.0741 97.785L16.0658 97.2441C16.2007 97.1727 16.343 97.0985 16.4923 97.0209C14.4805 98.3283 15.45 98.9626 17.672 98.5567C20.1102 98.1113 22.1601 97.4535 25.0181 96.456L30.8531 94.3503C33.202 93.5208 35.3106 92.8084 35.6737 92.7702C36.2682 92.7073 36.3497 92.9463 36.7752 93.3816C36.3176 93.2389 35.9067 93.14 35.6508 93.1712C34.7707 93.2789 18.9834 99.7922 16.0009 99.8614C13.0184 99.9307 13.3899 98.7565 15.0741 97.785Z" fill="#E7E7E7"/>
<path id="13" d="M108.391 38.2191C108.527 38.6018 108.718 38.8914 108.906 38.9388C109.293 39.0354 110.633 39.7059 111.518 41.3573C111.673 41.6459 111.812 41.9287 111.936 42.2071C111.366 41.6667 110.977 41.9746 109.997 43.645C108.892 45.5306 106.16 48.732 105.209 49.8161C104.575 50.5386 104.425 51.2501 104.377 52.0093L104.277 54.4484C104.221 55.4928 104.108 56.5792 103.746 56.9121C103.287 57.3353 102.75 57.0015 102.445 56.3759L102.342 56.1286C102.069 55.3509 101.37 54.7206 100.927 54.5519C100.651 54.4466 99.711 55.1348 98.481 56.1592L96.0332 58.2666C93.8753 60.1516 89.3657 63.5455 87.1786 64.9792L85.939 65.7507C83.6581 67.139 79.6554 69.5174 79.0498 70.0722L78.1938 70.8214C77.3428 71.5494 76.2982 72.4105 76.5313 72.1326L76.7612 71.8928C77.869 70.7962 77.3718 70.521 78.4049 69.7001C79.438 68.8787 84.7946 65.6107 87.6267 63.7015L88.4261 63.142C91.5194 60.9151 97.482 56.0675 98.7238 54.913L98.8681 54.7739C99.754 53.8726 100.755 53.3769 101.701 53.8241C102.648 54.2708 103.193 56.4146 103.327 55.5928C103.462 54.7709 103.43 51.1059 103.664 50.2518C103.898 49.3977 110.029 43.1086 109.952 41.8537C109.876 40.5987 108.553 40.1575 108.273 39.762C108.156 39.597 108.16 39.311 108.223 38.9544L108.391 38.2191Z" fill="#C8C8C8"/>
<path id="12" d="M105.329 34.9645L105.306 34.8512L105.956 34.8577C106.232 34.8696 106.432 34.8951 106.535 34.9357C107.536 35.3333 108.294 36.027 108.207 36.8738C108.12 37.7205 108.518 38.8424 108.905 38.939C109.191 39.0105 109.997 39.395 110.756 40.2569L110.664 40.7303L110.639 40.9405C110.6 41.6059 110.083 42.633 109.5 43.6769C108.959 44.6461 106.151 47.9479 105.047 49.179L104.824 49.4244C103.943 50.3788 103.843 50.7679 103.776 52.2465C103.709 53.7252 103.844 55.0337 103.517 56.1157C103.189 57.1977 102.698 56.3274 102.658 55.906C102.617 55.4846 101.905 54.6396 101.265 54.2575C100.667 53.9009 100.064 54.2611 98.1226 55.9613L97.6855 56.3462C95.3942 58.3767 90.5772 62.0281 88.4747 63.5007L87.7145 64.0085C85.2452 65.6008 80.732 68.0985 82.6382 66.8038L86.5464 64.1596C88.6299 62.7305 90.9405 61.0908 92.5409 59.7529L93.7524 58.7341C95.9821 56.8455 98.1959 54.889 99.3429 53.611L100.165 52.6526C102.096 50.4411 107.934 43.6696 108.916 42.1122C110.015 40.3714 108.71 39.9113 108.254 40.5741L106.994 42.0932C105.423 44.191 101.55 49.2156 98.3535 52.7653C94.4301 57.1213 87.7108 62.3339 87.1339 61.9494C86.5574 61.5649 96.0241 52.5341 97.9601 50.3081L98.4663 49.7094C100.871 46.8063 106.74 39.0998 106.959 38.0821C107.197 36.9828 105.952 35.8673 105.456 35.2007C105.402 35.1268 105.36 35.0476 105.329 34.9645Z" fill="#E7E7E7"/>
<path id="11" d="M77.878 54.4409L77.718 54.916L75.262 58.0936C73.6803 60.1139 72.5814 61.4518 71.9647 62.1076C70.7876 63.3598 69.516 64.1998 68.558 64.8972L62.7011 69.376C60.3726 71.1424 57.9565 72.9451 56.8686 73.6595L55.3288 74.6238C52.9473 76.1288 48.578 78.9271 43.6999 81.7194L41.0775 83.1971C34.2293 87.0114 22.1808 93.4617 16.6716 95.9804L15.3847 96.5606C12.7929 97.7117 11.436 98.1952 10.5547 98.4505L15.3347 96.0544C19.1861 94.1473 24.2733 91.6432 28.4366 89.5031L31.1505 88.0847C39.2383 83.7521 54.6734 74.5088 55.5792 73.9598L56.206 73.53C58.7715 71.7083 67.6216 65.0916 68.207 64.6C68.8629 64.0494 71.7562 61.3032 72.609 60.3796L77.878 54.4409ZM94.719 36.218C95.3993 35.6111 105.535 34.5377 106.536 34.9354C107.537 35.333 108.294 36.0267 108.208 36.8735C108.147 37.4716 108.327 38.2067 108.575 38.6212C108.375 38.5541 108.241 38.4576 108.234 38.3044C108.206 37.7176 107.559 37.0096 106.993 36.6319C106.578 36.3547 105.378 38.0776 104.725 39.0906L104.294 39.7836C104.188 39.9717 103.793 39.8673 102.079 39.3073C100.364 38.7473 97.4851 38.506 97.2761 38.4781C97.0671 38.4498 96.1512 39.4719 93.6748 43.059L93.095 43.8577C90.1258 47.7961 82.5638 56.1061 81.2943 57.4127L81.1799 57.5285C80.3037 58.3866 80.0018 58.6913 79.5838 58.3957C79.2076 58.1302 78.945 57.5806 79.0419 56.339L79.088 55.8988C79.1826 55.1636 79.1607 54.2527 79.0229 53.167L92.6262 38.4252C93.7789 37.1876 94.5683 36.3524 94.719 36.218Z" fill="#ECECEC"/>
<path id="10" d="M61.956 80.5822C62.485 80.5428 62.5764 81.3773 63.0076 81.0744C63.4387 80.7715 63.3753 80.1227 63.9714 79.9291C64.3128 79.8182 64.6863 79.7023 64.9412 79.7511C64.7975 80.1063 64.5087 80.4924 64.0349 80.9362C62.8322 82.0626 60.3886 83.6671 57.8445 85.0945L44.3361 92.4538C44.1612 92.5492 42.9924 92.4937 42.8749 92.4553C42.8135 92.4353 42.5963 92.0476 42.4035 91.5996L42.5442 91.6713C42.828 91.7921 43.3917 91.9533 44.2354 92.1564C43.5112 91.4916 43.3435 91.1783 43.7311 91.2159C44.3129 91.2723 45.1192 91.7825 45.3802 91.4464C45.6413 91.1108 45.6609 90.1776 46.0668 90.1331C46.4728 90.0887 47.6136 90.1706 47.8934 89.9225C48.1731 89.6744 48.5307 88.1827 48.9842 88.1712L49.6809 88.169C50.1391 88.1511 50.6614 88.0663 50.9764 87.7241C51.4807 87.176 52.3198 85.7886 52.6474 85.9604C52.9745 86.1327 53.0171 86.4015 53.0018 86.6216C52.9865 86.8417 53.817 85.9153 53.9673 85.6435C54.0988 85.4055 53.9379 84.8885 54.368 84.7507L54.5911 84.7169C55.218 84.7008 55.9981 84.1039 56.2176 84.2826L56.2724 84.3887C56.3493 84.8322 57.3836 83.7129 57.6425 83.8314C57.9014 83.9499 58.5199 83.99 58.7353 83.5006C58.9507 83.0108 59.5122 82.1093 59.9424 81.9894C60.3726 81.8695 60.8384 82.2445 60.9723 82.0435C61.1053 81.8421 61.427 80.6216 61.956 80.5822Z" fill="#727272"/>
<path id="9" d="M61.6271 82.0787C61.8206 82.0512 62.0416 82.0112 62.274 81.9337L62.6292 81.7861L63.0087 81.5627C63.3232 81.3614 63.7609 81.0551 64.3218 80.6444L64.0337 80.9361C62.8309 82.0625 60.3873 83.667 57.8432 85.0944L44.3348 92.4536C44.231 92.5101 43.7763 92.5136 43.3995 92.4991C43.7397 92.3931 44.0465 92.2431 44.1147 92.1255L44.2341 92.1562L44.1089 92.0403C43.9641 91.8668 44.5347 91.7514 44.7508 91.6811L44.824 91.6493C44.8508 91.627 44.9519 91.5983 45.0763 91.5595C45.2029 91.5641 45.305 91.5358 45.373 91.4545C45.5287 91.3839 45.6609 91.2966 45.6804 91.1832C45.7285 90.9044 46.3825 90.9452 46.7436 90.7988C47.1047 90.6529 49.4953 89.2992 50.2341 88.899C50.9728 88.4988 51.1036 88.3256 51.6744 87.7499C52.2452 87.1747 52.267 87.5985 52.5283 87.4552C52.7896 87.312 53.4191 86.7273 53.6178 86.4688C53.7769 86.2621 54.2235 86.1126 54.6113 86.0405L54.8856 86.0015C55.3064 85.9619 55.6662 85.8746 56.4018 85.3461C57.1378 84.8176 57.0718 84.5241 57.7401 84.2245C58.3129 83.9677 58.5778 83.996 58.7229 83.924L58.7862 83.8777C58.9147 83.7426 59.7102 83.329 59.9613 83.0147C60.1569 82.7698 60.7234 82.2841 60.8993 82.2473C61.0166 82.2235 61.2589 82.1672 61.6271 82.0787Z" fill="#1A0855"/>
<path id="8" d="M18.4765 97.9438C19.839 97.0991 36.9255 89.6044 36.742 89.9667C36.5586 90.3294 32.2933 92.4982 27.3054 94.7728C22.3175 97.0479 17.1136 98.7885 18.4765 97.9438Z" fill="#D4D5D5"/>
<path id="7" d="M18.5347 98.134C20.9445 97.1215 22.6929 96.3743 23.7801 95.8925C29.3766 93.411 33.6 91.4524 36.4592 90.1797C36.0262 90.4948 35.3444 90.8847 34.4138 91.3495C33.0174 92.0468 30.7492 93.2029 27.3052 94.7734L26.2725 95.2356C22.8259 96.7508 19.4992 97.9428 18.5347 98.134Z" fill="#EDEDED"/>
<path id="6" d="M40.9982 88.8922C40.9902 88.7345 40.6844 87.6142 43.8393 85.6135C46.9943 83.6128 56.4322 78.2968 57.7053 77.8279C58.9779 77.3591 48.3947 83.4137 47.0161 84.2536C45.638 85.0934 43.047 86.6126 42.5426 87.0833C42.0381 87.5535 41.0067 89.0494 40.9982 88.8922Z" fill="#F1F1F1"/>
<path id="5" d="M63.0117 75.4627C62.2887 74.9763 61.165 74.7033 59.8845 75.5307C59.0307 76.0821 58.3673 76.2384 57.8939 75.9996C58.0812 76.6513 58.4933 76.9448 59.1307 76.8801C60.0871 76.783 60.5662 75.7026 61.4693 75.6072C62.372 75.5114 63.7347 75.9491 63.0117 75.4627Z" fill="#D0D0D0"/>
<path id="4" d="M67.5745 73.8987C67.4447 73.0569 68.5274 72.2183 69.4859 70.973C70.4449 69.7277 70.997 68.6954 70.7619 67.8646C70.5269 67.0337 71.3821 67.6465 71.3656 68.692C71.3491 69.7378 70.6126 70.5217 69.8479 71.3812C69.0837 72.2407 68.2546 72.803 67.5745 73.8987Z" fill="#D0D0D0"/>
<path id="3" d="M92.0051 59.1934C89.3941 61.5193 83.5365 65.524 84.1928 65.3245C84.8486 65.1251 91.0398 61.3138 95.383 57.4684C99.7262 53.6229 104 47.9023 103.046 48.3867C102.091 48.871 98.4823 53.152 96.5616 54.9628C94.641 56.7737 94.616 56.868 92.0051 59.1934Z" fill="#CFD1D2"/>
<path id="2" d="M97.7743 28.3288C98.4594 28.9671 99.3125 30.5591 101.092 31.6471C102.871 32.7351 103.703 32.8701 104.772 33.4959C105.842 34.1222 106.643 34.6638 106.674 35.1866C106.694 35.5184 105.784 36.8923 105.069 37.9301C101.592 36.401 99.1656 35.4455 97.7908 35.0632C95.306 34.3726 92.5136 34.5039 92.0568 34.3576C91.6485 34.2268 91.4566 33.9537 91.4794 33.5178C91.739 33.5329 92.0457 33.3511 92.4046 32.9516C93.4251 31.8148 94.866 29.6915 95.6737 29.0709L96.3543 28.5159C96.8536 28.1201 97.2948 27.8817 97.7743 28.3288Z" fill="#7756D3"/>
<path id="1" d="M58.2559 76.1214C57.675 75.8382 58.3493 74.9819 60.2783 73.5523C63.1718 71.4082 69.0704 67.9045 69.6118 67.6348C70.1531 67.3656 70.663 67.6202 70.7013 67.5255C70.7396 67.4309 70.2793 66.8311 69.5203 67.1381C68.7614 67.445 62.7446 71.1143 59.93 73.1862C58.0537 74.5676 57.3748 75.5049 57.8944 75.9986L58.2559 76.1214Z" fill="#E6E6E6"/>
</g>
<defs>
<clipPath id="clip0_43_6606">
<rect width="111.321" height="99.6505" fill="white" transform="translate(0 3.48535) rotate(-1.79403)"/>
</clipPath>
</defs>
</svg>
